<svg id="Layer_1" data-name="Layer 1" xmlns="http://www.w3.org/2000/svg" viewBox="0 0 337.5 315.58"><defs><style>.cls-1,.cls-2{fill:#f9a826;}.cls-1,.cls-6{opacity:0.1;}.cls-1{isolation:isolate;}.cls-3{fill:#fff;}.cls-4{fill:#3f3d56;}.cls-5{fill:#2f2e41;}.cls-7{fill:#ececf3;}</style></defs><title>icons</title><path class="cls-1" d="M310.27,152.55c.18-2.08.28-4.18.28-6.31,0-33.32-22.61-60.34-50.5-60.34a44.06,44.06,0,0,0-24.5,7.58C215.81,78.17,190,68.92,161.84,68.92,116,68.92,76.5,93.44,59,128.6c-1-.07-2-.11-2.93-.11-27.91,0-50.52,27-50.52,60.34A68.67,68.67,0,0,0,13.86,222h0c0,30,24,54.29,53.65,54.29h37.35L105,276c2.19-3.56,7.45-4.46,11.11-2.43a12.14,12.14,0,0,0,3,1.47c4.33.92,7.23-6,11.61-5.37,2.2.34,3.92,2.62,6.13,2.38,1.46-.15,2.58-1.38,3.95-1.9,2.21-.84,4.45.32,6,2.21.89-2.58.89-5.64,2.34-8,2.19-3.56,7.45-4.45,11.11-2.43a11.46,11.46,0,0,0,3,1.47c4.33.92,7.23-6,11.61-5.36,2.2.34,3.92,2.61,6.13,2.38,1.46-.16,2.57-1.39,4-1.91,3.44-1.3,7,2.24,7.8,5.82a24.91,24.91,0,0,1,.52,4.79c3-1.44,5.47-5.47,8.85-4.95,2.2.34,3.91,2.61,6.12,2.38,1.47-.16,2.58-1.39,4-1.91,3.44-1.3,6.95,2.24,7.8,5.82a30.61,30.61,0,0,1,.56,5.82h61.89c23.28,0,42.13-19.08,42.13-42.62h0A69.1,69.1,0,0,0,332,202.09C332,181.57,323.38,163.45,310.27,152.55Z"/><circle class="cls-2" cx="196.31" cy="94.1" r="26.64"/><polygon class="cls-3" points="187.73 95.11 196.26 86.57 204.88 95.11 199.03 95.11 199.03 101.63 193.59 101.63 193.59 95.15 187.73 95.11"/><path class="cls-3" d="M231.37,162.14a9.11,9.11,0,0,0-17-2.45,7.29,7.29,0,0,0,.79,14.54H231a6.1,6.1,0,0,0,6.08-6.07A6,6,0,0,0,231.37,162.14Zm-7,3.59v4.61H220.5v-4.62h-4.15l6.08-6.09,6.08,6.09Z"/><path class="cls-3" d="M277.91,237.77a9.11,9.11,0,0,0-17-2.45,7.29,7.29,0,0,0,.79,14.54h15.82a6.1,6.1,0,0,0,6.08-6.07A6,6,0,0,0,277.91,237.77Zm-7,3.59V246H267v-4.62h-4.15l6.08-6.09,6.08,6.09Z"/><path class="cls-3" d="M106.42,183.2a14.08,14.08,0,0,0-26.33-3.76,11.27,11.27,0,0,0,1.22,22.47h24.45a9.43,9.43,0,0,0,9.4-9.41A9.28,9.28,0,0,0,106.42,183.2Zm-10.81,5.54v7.15h-6v-7.15H83.2l9.4-9.4,9.4,9.4Z"/><path class="cls-3" d="M211.62,207.7v-7.44l3.43,3.42.85-.88-4.9-4.9-4.9,4.9.86.85,3.43-3.39v7.44Z"/><path class="cls-3" d="M40.45,217.8v-7.44l3.43,3.43.86-.89-4.9-4.9-4.9,4.9.86.86,3.43-3.4v7.44Z"/><path class="cls-3" d="M211.31,137.58V132l2.57,2.57.64-.66-3.67-3.68-3.67,3.68.64.64,2.57-2.55v5.58Z"/><path class="cls-3" d="M144.25,97.16V91.58l2.57,2.57.65-.66-3.68-3.67-3.67,3.67.64.64,2.57-2.55v5.58Z"/><path class="cls-3" d="M119.14,152.27V146.7l2.58,2.57.64-.66-3.68-3.68L115,148.61l.64.64,2.58-2.55v5.57Z"/><path class="cls-3" d="M276.53,178v-5.57L279.1,175l.64-.66-3.67-3.68-3.67,3.68.64.64,2.57-2.55V178Z"/><path class="cls-3" d="M113.63,227.29v-5.57l2.57,2.57.65-.67L113.17,220l-3.67,3.67.64.65,2.57-2.55v5.57Z"/><circle class="cls-3" cx="247.13" cy="129.01" r="1.84"/><circle class="cls-3" cx="74.13" cy="124.11" r="1.84"/><circle class="cls-3" cx="128.33" cy="170.65" r="1.84"/><circle class="cls-3" cx="288.78" cy="201.88" r="0.92"/><circle class="cls-3" cx="219.88" cy="227.3" r="0.92"/><circle class="cls-3" cx="102" cy="248.73" r="0.92"/><circle class="cls-3" cx="34.94" cy="174.33" r="0.92"/><circle class="cls-3" cx="43.82" cy="154.73" r="0.92"/><circle class="cls-3" cx="241.32" cy="257.61" r="0.92"/><circle class="cls-3" cx="71.38" cy="225.77" r="0.92"/><circle class="cls-3" cx="92.5" cy="141.56" r="0.92"/><polygon class="cls-3" points="123.89 108.95 119.14 108.95 119.14 104.21 118.53 104.21 118.53 108.95 113.79 108.95 113.79 109.57 118.53 109.57 118.53 114.31 119.14 114.31 119.14 109.57 123.89 109.57 123.89 108.95"/><polygon class="cls-3" points="239.48 196.65 236.6 196.65 236.6 193.77 236.23 193.77 236.23 196.65 233.36 196.65 233.36 197.02 236.23 197.02 236.23 199.89 236.6 199.89 236.6 197.02 239.48 197.02 239.48 196.65"/><polygon class="cls-3" points="222.03 250.23 219.15 250.23 219.15 247.35 218.78 247.35 218.78 250.23 215.9 250.23 215.9 250.6 218.78 250.6 218.78 253.48 219.15 253.48 219.15 250.6 222.03 250.6 222.03 250.23"/><polygon class="cls-3" points="79.03 243.49 76.16 243.49 76.16 240.62 75.78 240.62 75.78 243.49 72.91 243.49 72.91 243.87 75.78 243.87 75.78 246.74 76.16 246.74 76.16 243.87 79.03 243.87 79.03 243.49"/><polygon class="cls-3" points="58.82 189.6 55.95 189.6 55.95 186.73 55.57 186.73 55.57 189.6 52.7 189.6 52.7 189.98 55.57 189.98 55.57 192.85 55.95 192.85 55.95 189.98 58.82 189.98 58.82 189.6"/><polygon class="cls-4" points="144.39 244.35 144.41 242.62 143.38 242.61 143.36 244.34 141.57 249.49 146.06 249.54 144.39 244.35"/><polygon class="cls-4" points="148.89 244.45 148.91 242.68 147.85 242.66 147.83 244.43 146 249.72 150.6 249.77 148.89 244.45"/><polygon class="cls-4" points="153.36 244.46 153.38 242.73 152.35 242.72 152.33 244.44 150.54 249.6 155.03 249.65 153.36 244.46"/><polygon class="cls-4" points="185.34 244.88 185.36 243.11 184.29 243.1 184.27 244.87 182.44 250.15 187.04 250.21 185.34 244.88"/><polygon class="cls-4" points="189.93 244.94 189.96 243.17 188.89 243.15 188.87 244.92 187.04 250.21 191.64 250.26 189.93 244.94"/><polygon class="cls-4" points="194.53 244.99 194.55 243.22 193.49 243.21 193.47 244.98 191.64 250.26 196.24 250.32 194.53 244.99"/><polygon class="cls-4" points="164.46 244.63 164.48 242.86 163.42 242.85 163.4 244.62 161.56 249.91 166.16 249.96 164.46 244.63"/><polygon class="cls-4" points="169.06 244.69 169.08 242.92 168.02 242.91 168 244.68 166.16 249.96 170.76 250.02 169.06 244.69"/><polygon class="cls-4" points="173.66 244.74 173.68 242.97 172.62 242.96 172.6 244.73 170.76 250.02 175.37 250.07 173.66 244.74"/><path class="cls-4" d="M161.33,120.92c-.07-6.09-7.25-16.9-11.12-16.94s-11,10.58-11.16,16.67h-.19L137.4,243.07l22.47.27,1.46-122.42Z"/><path class="cls-4" d="M202.37,121.41c-.07-6.09-7.24-16.9-11.12-16.94s-10.95,10.58-11.16,16.67h-.18l-1.46,122.42,22.47.27,1.46-122.42Z"/><path class="cls-5" d="M182.18,64.07c0-8.93-7.15-24.73-11-24.78s-11,15.59-11.25,24.5h-.18l-2.15,179.5,22.47.27,2.14-179.5Z"/><polygon class="cls-2" points="161.44 160.37 169.98 151.84 178.59 160.37 172.74 160.37 172.74 166.9 167.3 166.9 167.3 160.41 161.44 160.37"/><g class="cls-6"><path d="M181.57,123.47c2.32-5.42,6.86-11.07,9.68-11,3.68,0,10.3,9.73,11.05,15.92l.08-6.65h0c-.07-6.09-7.24-16.89-11.12-16.94-2.78,0-7.24,5.48-9.59,10.83Z"/><path d="M138.87,128.61h.18c.21-6.09,7.29-16.72,11.16-16.67,2.53,0,6.46,4.64,8.91,9.54l.6-49.72h.18c.23-8.93,7.38-24.55,11.25-24.49,3.66,0,10.22,14.15,11,23.24l.07-6.13h0c0-8.93-7.15-24.73-11-24.77s-11,15.58-11.26,24.51h-.18l-.6,49.71c-2.45-4.9-6.38-9.51-8.91-9.54-3.87-.05-11,10.59-11.16,16.68h-.18l-1.46,122.42h.09Z"/></g><rect class="cls-7" x="166.5" y="49.54" width="9.2" height="4.25" rx="2.12" transform="translate(117.4 222.14) rotate(-89.32)"/></svg>