<svg id="Layer_1" data-name="Layer 1" xmlns="http://www.w3.org/2000/svg" viewBox="0 0 337.5 315.58"><defs><style>.cls-1{fill:#3f3d56;}.cls-2{fill:#ccc;}.cls-3{fill:#3e8d22;}.cls-4{fill:#f2f2f2;}.cls-5{fill:#fff;}.cls-6{fill:#ffb8b8;}.cls-7{fill:#2f2e41;}.cls-8{opacity:0.2;isolation:isolate;}</style></defs><title>icons</title><path class="cls-1" d="M203.87,168.62H9.81A6.8,6.8,0,0,1,3,161.8V67.51a6.8,6.8,0,0,1,6.79-6.82H203.87a6.8,6.8,0,0,1,6.79,6.82V161.8A6.8,6.8,0,0,1,203.87,168.62ZM9.81,61.49a6,6,0,0,0-6,6V161.8a6,6,0,0,0,6,6H203.87a6,6,0,0,0,6-6V67.51a6,6,0,0,0-6-6Z"/><circle class="cls-2" cx="39.63" cy="80.55" r="3.61"/><circle class="cls-2" cx="39.63" cy="94.19" r="3.61"/><circle class="cls-2" cx="39.63" cy="107.83" r="3.61"/><circle class="cls-2" cx="39.63" cy="121.48" r="3.61"/><circle class="cls-2" cx="100.42" cy="148.76" r="3.61"/><circle class="cls-2" cx="74.34" cy="148.76" r="3.61"/><circle class="cls-2" cx="154.19" cy="148.76" r="3.61"/><circle class="cls-2" cx="126.9" cy="148.76" r="3.61"/><path class="cls-2" d="M176.46,81H57.69a.4.4,0,0,1,0-.8H176.46a.4.4,0,0,1,0,.8Z"/><path class="cls-2" d="M176.46,94.59H57.69a.4.4,0,0,1,0-.8H176.46a.4.4,0,0,1,0,.8Z"/><path class="cls-2" d="M176.46,108.24H57.69a.41.41,0,0,1,0-.81H176.46a.41.41,0,0,1,0,.81Z"/><path class="cls-2" d="M176.46,121.88H57.69a.41.41,0,0,1,0-.81H176.46a.41.41,0,0,1,0,.81Z"/><path class="cls-3" d="M80.16,135.52H68.52a2,2,0,0,1-2-2V122.68a2,2,0,0,1,2-2H80.16a2,2,0,0,1,2,2v10.83A2,2,0,0,1,80.16,135.52Z"/><path class="cls-3" d="M106.24,135.52H94.6a2,2,0,0,1-2-2V109a2,2,0,0,1,2-2h11.64a2,2,0,0,1,2,2v24.47A2,2,0,0,1,106.24,135.52Z"/><path class="cls-3" d="M132.72,135.52H121.08a2,2,0,0,1-2-2V95.4a2,2,0,0,1,2-2h11.64a2,2,0,0,1,2,2v38.11A2,2,0,0,1,132.72,135.52Z"/><path class="cls-3" d="M160,135.52H148.37a2,2,0,0,1-2-2V82.15a2,2,0,0,1,2-2H160a2,2,0,0,1,2,2v51.36A2,2,0,0,1,160,135.52Z"/><path class="cls-4" d="M268.42,252.62a14.53,14.53,0,0,1-5.22-12.55,11.77,11.77,0,0,1,8.75-10c4.62-1,9.88,1.76,11.28,6.27.78-8.69,1.67-17.75,6.29-25.16a26.62,26.62,0,0,1,19.3-12.36,23.9,23.9,0,0,1,21,8.58,21.72,21.72,0,0,1,2.67,22.35c-2.53,5.24-7.19,9.15-12.07,12.32a77.88,77.88,0,0,1-53.27,11.66Z"/><path class="cls-5" d="M322.08,201.38a128.66,128.66,0,0,0-37.77,51.07c-.36.88,1.08,1.26,1.43.39a127.11,127.11,0,0,1,37.39-50.41c.74-.6-.32-1.65-1.05-1.05Z"/><path class="cls-1" d="M230.37,142.16A6.89,6.89,0,0,1,229,142h0l-.25-.06L130.5,119.1c-1.07-.25-1.78-.92-1.65-1.57a1.08,1.08,0,0,1,.82-.75,3,3,0,0,1,1.45,0L230,137.39c2.22.47,3.77,1.84,3.51,3.12a2.11,2.11,0,0,1-1.66,1.46A5.27,5.27,0,0,1,230.37,142.16Z"/><path class="cls-6" d="M209.55,139a4,4,0,0,0,5.52-1.44,3.15,3.15,0,0,0,.31-.64l14.34.3-4-6.3-13,.68a4.06,4.06,0,0,0-3.19,7.4Z"/><path class="cls-1" d="M215.78,136.71l-.08-4.4a1.81,1.81,0,0,1,1.64-1.82L243.1,128l21.46-7a5.15,5.15,0,1,1,3.2,9.78l-.14,0-23.75,7-26.24.66a1.82,1.82,0,0,1-1.78-1.29A1.92,1.92,0,0,1,215.78,136.71Z"/><polygon class="cls-6" points="253.9 249.99 248.98 249.99 246.64 231.01 253.9 231.01 253.9 249.99"/><path class="cls-7" d="M255.15,254.76H239.29v-.21a6.18,6.18,0,0,1,6.18-6.17h9.68Z"/><polygon class="cls-6" points="268.35 249.99 263.43 249.99 261.08 231.01 268.35 231.01 268.35 249.99"/><path class="cls-7" d="M269.6,254.76H253.74v-.21a6.17,6.17,0,0,1,6.17-6.17h9.69Z"/><path class="cls-7" d="M271.65,173.31,270.47,243a1.6,1.6,0,0,1-1.63,1.58h-.12l-5.76-.52a1.61,1.61,0,0,1-1.45-1.48l-3.37-43.47a.4.4,0,0,0-.43-.37.41.41,0,0,0-.37.39l-1.69,44.47a1.6,1.6,0,0,1-1.6,1.54h-6.17a1.6,1.6,0,0,1-1.6-1.51L242,172.91l25.68-6.42Z"/><circle class="cls-6" cx="253.02" cy="98.01" r="9.85"/><path class="cls-1" d="M241.07,175.38a1.78,1.78,0,0,1-.54-1.27l-.67-47.52a11.46,11.46,0,0,1,7.74-11c.92-4.18,5.84-4.71,8.7-4.65a4.46,4.46,0,0,1,3.6,2L262,116l4.52,2.65A11.45,11.45,0,0,1,271.89,131l-.7,3.17a72.91,72.91,0,0,0,.68,34l1.4,5.34a1.8,1.8,0,0,1-1.28,2.21,1.75,1.75,0,0,1-.6.05l-1.63-.12A1.81,1.81,0,0,1,268.1,174l-.27-2.7a.2.2,0,0,0-.22-.18.21.21,0,0,0-.18.18l-.26,2.61a1.81,1.81,0,0,1-1.77,1.63l-23,.35h0A1.8,1.8,0,0,1,241.07,175.38Z"/><path class="cls-7" d="M253.79,103.69c0,1.39,1,2.2,2.2,2.93a12.46,12.46,0,0,0,3.93,1.35,1.2,1.2,0,0,0,1.63-.5,1.18,1.18,0,0,0,.14-.55l1.25-4.75a30.2,30.2,0,0,0,1-4.63,10.65,10.65,0,0,0-2.52-8.43c-2.1-2.18-5.75-3-8.27-1.27-3-3.82-16.66,4.62-13.29,7.27.6.48,1.52-.12,2.28-.18a2.44,2.44,0,0,1,2.1.67c.63.77.35,1.92.61,2.88a2.7,2.7,0,0,0,3.39,1.75h0A8.84,8.84,0,0,0,250,99.09a2.29,2.29,0,0,1,2-.43c.87.32,1.18,1.39,1.26,2.31A20.85,20.85,0,0,0,253.79,103.69Z"/><path class="cls-1" d="M326.8,254.89H173.92a.4.4,0,0,1,0-.8H326.8a.4.4,0,1,1,0,.8Z"/><polygon class="cls-8" points="251.49 130.1 249.88 149.76 241.46 170.23 253.9 150.16 251.49 130.1"/><path class="cls-6" d="M239.49,177.85a4,4,0,0,0,.62-5.67,4.85,4.85,0,0,0-.49-.52L245,158.37l-7.3,1.47-4,12.4a4.06,4.06,0,0,0,5.79,5.61Z"/><path class="cls-1" d="M239.1,172,235,170.49a1.81,1.81,0,0,1-1.13-2.17l6.82-25,1-22.56a5.15,5.15,0,0,1,10.28.47s0,.1,0,.15l-1.86,24.71-8.69,24.76a1.81,1.81,0,0,1-1.83,1.21A1.87,1.87,0,0,1,239.1,172Z"/><path class="cls-1" d="M176.46,135.52H57.69a.4.4,0,0,1,0-.8H176.46a.4.4,0,1,1,0,.8Z"/></svg>