<svg id="Layer_1" data-name="Layer 1" xmlns="http://www.w3.org/2000/svg" viewBox="0 0 337.5 315.58"><defs><style>.cls-1{fill:#f2f2f2;}.cls-2{fill:#fff;}.cls-3{fill:#ffb8b8;}.cls-4{fill:#2f2e41;}.cls-5{fill:#f50057;}.cls-6{fill:#e6e6e6;}.cls-7{fill:#3f3d56;}</style></defs><title>icons</title><path class="cls-1" d="M326.7,259.29c-3.24,11.25-12.71,19.13-22.6,25.82q-2.07,1.41-4.14,2.74l0,0-.2.13-.85.55.15.07s.16.08,0,0l-.15-.06c-5.74-2.32-11.59-4.8-16-9.14-4.57-4.5-7.24-11.57-4.76-17.48a11,11,0,0,1,1.22-2.2c.2-.29.42-.56.64-.83a12.12,12.12,0,0,1,20.8,3.68c.72-6.76-4.85-12.42-10.21-16.6s-11.47-8.72-12.5-15.44a13.11,13.11,0,0,1,3.09-10.28l.22-.26a17.66,17.66,0,0,1,11.36-6.09c8.22-.86,16.22,3.5,22.19,9.22C324.57,232.35,330.39,246.49,326.7,259.29Z"/><path class="cls-2" d="M311.24,244.57a30,30,0,0,1,3.6,7.93,26.39,26.39,0,0,1,.9,7.71,33.41,33.41,0,0,1-4.38,15.21,48,48,0,0,1-7.26,9.69q-2.07,1.41-4.14,2.74l0,0-.2.13-.85.55s.31.15.14.08l-.15-.06a26.37,26.37,0,0,0-19.52-28.82c.2-.29.42-.56.64-.83a27.58,27.58,0,0,1,16.91,13.61,28,28,0,0,1,3,15.29l.7-.65a49,49,0,0,0,10.86-14.12,31.28,31.28,0,0,0,3.26-14.71,28.13,28.13,0,0,0-5.64-15.19,64.85,64.85,0,0,0-12.33-12.71A74.13,74.13,0,0,0,281.44,221a.54.54,0,0,1-.26-.69.43.43,0,0,1,.22-.26.4.4,0,0,1,.34,0c.68.32,1.35.63,2,1a75.07,75.07,0,0,1,15.46,10.19A60.13,60.13,0,0,1,311.24,244.57Z"/><path class="cls-3" d="M195.2,192.55a4.88,4.88,0,0,0,2.93-6.25,4.38,4.38,0,0,0-.37-.79l11.35-13.13-8.94-1.17-9.41,12.66a4.91,4.91,0,0,0,4.44,8.68Z"/><path class="cls-3" d="M259.17,195.33a4.88,4.88,0,0,0-.46-6.89,4.4,4.4,0,0,0-.69-.51l3.61-17-8.4,3.3-2.14,15.62a4.91,4.91,0,0,0,8.08,5.47Z"/><polygon class="cls-3" points="218.52 283.83 212.56 283.83 209.73 260.86 218.52 260.86 218.52 283.83"/><path class="cls-4" d="M220,289.61H200.83v-.24a7.48,7.48,0,0,1,7.48-7.48H220Z"/><polygon class="cls-3" points="247.67 283.83 241.71 283.83 238.88 260.86 247.67 260.86 247.67 283.83"/><path class="cls-4" d="M249.19,289.61H230v-.24a7.48,7.48,0,0,1,7.48-7.48h11.73Z"/><path class="cls-4" d="M219.14,271.84l-8.43-.34a2.19,2.19,0,0,1-2.1-2.25L211,191.33l.15-.05c14.78-5.35,27-4.94,37.38,1.23l.11.07,1.42,75.89a2.18,2.18,0,0,1-2.14,2.23h-7.15a2.2,2.2,0,0,1-2.15-1.77l-9.68-49.27a.73.73,0,0,0-.86-.57.72.72,0,0,0-.58.63l-6.09,50.2a2.2,2.2,0,0,1-2.17,1.92Z"/><circle class="cls-3" cx="227.34" cy="111.07" r="11.93"/><path class="cls-5" d="M199.23,183.07a2.14,2.14,0,0,1-1-.82l-2.31-3.45a2.18,2.18,0,0,1,.06-2.51l9.29-12.62,5.83-27.94a7,7,0,1,1,13.12,5.11l-2.75,17.78a22.52,22.52,0,0,1-7.78,13.82l-12.24,10.27a2.2,2.2,0,0,1-2.21.36Z"/><path class="cls-5" d="M258.66,184.33a2.1,2.1,0,0,1-1.31.06l-4-1.07a2.17,2.17,0,0,1-1.61-1.92l-1.36-15.61L236.28,141a7,7,0,0,1,13.22-4.86v0l9.68,15.17a22.55,22.55,0,0,1,3.29,15.52l-2.4,15.79a2.22,2.22,0,0,1-1,1.5A1.88,1.88,0,0,1,258.66,184.33Z"/><path class="cls-5" d="M214.29,132.26a20.33,20.33,0,0,1,16.29-6.59l.6,0h0a20.27,20.27,0,0,1,14.65,8.09,20.58,20.58,0,0,1,3.66,16.59,64.33,64.33,0,0,0,1.7,33l3.2,9.94a2.19,2.19,0,0,1-1.41,2.75,2.65,2.65,0,0,1-.55.1l-16.37.88-4.19-7.24v7.46L212,198.33h-.12a2.19,2.19,0,0,1-2.18-2.19,1.09,1.09,0,0,1,0-.18l2.24-27.87-2.82-18.94A20.45,20.45,0,0,1,214.29,132.26Z"/><path class="cls-4" d="M235.64,122.46c-1.11.64-5.48,1.06-5.79-.18v0a9.26,9.26,0,0,1,0-2.78,3.49,3.49,0,0,0-.66-2.63c-1.18-1.27-3.28-.6-5-.92a4.22,4.22,0,0,1-3.28-4.5,5.72,5.72,0,0,1,.11-.57,3.25,3.25,0,0,0-2.48-3.86,3,3,0,0,0-.89-.07c-1.72.1-3.58.62-5-.66-1.1-1-1.37-3.55-.89-5,.82-2.35,6-3.58,8.31-4.26a19.75,19.75,0,0,1,16.73,2.74,8.94,8.94,0,0,1,3.4,3.94,4.32,4.32,0,0,1-1.07,4.82,8.9,8.9,0,0,1,2.06,8.65C240.54,119.4,237.28,121.51,235.64,122.46Z"/><path class="cls-6" d="M138.31,154.17H30.94a.49.49,0,0,1-.48-.49.48.48,0,0,1,.48-.48H138.31a.48.48,0,0,1,.49.48A.49.49,0,0,1,138.31,154.17Z"/><path class="cls-7" d="M114.8,154.17h-61a.49.49,0,0,1-.49-.49.48.48,0,0,1,.49-.48h61a.47.47,0,0,1,.48.48A.48.48,0,0,1,114.8,154.17Z"/><path class="cls-7" d="M84.87,154.17a.48.48,0,0,1-.48-.49v-30.6a.48.48,0,0,1,.48-.49.49.49,0,0,1,.49.49v30.6A.49.49,0,0,1,84.87,154.17Z"/><path class="cls-7" d="M115.48,154.17a.49.49,0,0,1-.49-.49V92.47a.49.49,0,1,1,1,0v61.21A.49.49,0,0,1,115.48,154.17Z"/><circle class="cls-6" cx="14.43" cy="92.47" r="5.34"/><circle class="cls-6" cx="14.43" cy="123.08" r="5.34"/><circle class="cls-6" cx="14.43" cy="153.68" r="5.34"/><path class="cls-6" d="M138.31,93H30.94a.48.48,0,0,1-.48-.48.49.49,0,0,1,.48-.49H138.31a.49.49,0,0,1,.49.49A.48.48,0,0,1,138.31,93Z"/><path class="cls-6" d="M138.31,123.56H30.94a.49.49,0,0,1,0-1H138.31a.49.49,0,1,1,0,1Z"/><circle class="cls-5" cx="54.02" cy="153.68" r="5.34"/><circle class="cls-5" cx="84.87" cy="123.08" r="5.34"/><circle class="cls-5" cx="84.87" cy="153.68" r="5.34"/><circle class="cls-5" cx="115.48" cy="92.47" r="5.34"/><circle class="cls-5" cx="115.48" cy="123.08" r="5.34"/><circle class="cls-5" cx="115.48" cy="153.68" r="5.34"/><path class="cls-7" d="M337,289.76H123.73a.48.48,0,0,1-.49-.48.49.49,0,0,1,.49-.49H337a.49.49,0,0,1,.49.49A.48.48,0,0,1,337,289.76Z"/><path class="cls-5" d="M156.63,246.55c-.32,0-.65,0-1,0A18.46,18.46,0,0,0,137.2,265h19.43Z"/><path class="cls-7" d="M160.52,289.76a19,19,0,0,1-19-18.94.49.49,0,0,1,.48-.49H161V252.38a.51.51,0,0,1,.15-.35.5.5,0,0,1,.36-.14,18.95,18.95,0,0,1-1,37.87Zm-18-18.46A18,18,0,1,0,162,252.9v17.92a.48.48,0,0,1-.48.48Z"/></svg>