<svg id="Layer_1" data-name="Layer 1" xmlns="http://www.w3.org/2000/svg" viewBox="0 0 337.5 315.58"><defs><style>.cls-1{fill:#f2f2f2;}.cls-2{fill:#e6e6e6;}.cls-3{fill:#fff;}.cls-4{fill:#ccc;}.cls-5{fill:#536dfe;}.cls-6{fill:#a0616a;}.cls-7{fill:#3f3d56;}.cls-8{fill:#2f2e41;}.cls-9{fill:#ffb8b8;}</style></defs><title>icons</title><path class="cls-1" d="M270.68,66.89a214.05,214.05,0,0,1-14.54,59.2c-9.67,24.24-22.87,45.6-38.18,61.76l-.85-.75c15.24-16.07,28.38-37.33,38-61.48,8.7-21.82,13.87-44.52,15-65.65l1.09.18Q271,63.5,270.68,66.89Z"/><path class="cls-1" d="M277.65,178.81C256.14,213,230,237.49,204.16,247.66l-.52-1c25.7-10.1,51.64-34.43,73.06-68.5Z"/><path class="cls-1" d="M270.16,90.89a214.25,214.25,0,0,1-14.54,59.19c-9.67,24.25-22.87,45.6-38.18,61.76l-.85-.74c15.24-16.08,28.38-37.34,38-61.49,8.7-21.82,13.87-44.52,15-65.65l1.08.18Q270.47,87.49,270.16,90.89Z"/><path class="cls-2" d="M28.68,140.36H14.56A2,2,0,0,1,13,139.6a2,2,0,0,1-.38-1.66,38.39,38.39,0,0,0-.25-18,2,2,0,0,1,.78-2.1c7.26-5.22,13-5.07,17,.45a2,2,0,0,1,.35.85,63.06,63.06,0,0,1,.18,19.49A2,2,0,0,1,28.68,140.36Z"/><path class="cls-3" d="M24.3,126.23H19.44a1,1,0,0,1,0-2H24.3a1,1,0,0,1,0,2Z"/><path class="cls-3" d="M24.3,129.78H19.44a1,1,0,0,1,0-2H24.3a1,1,0,0,1,0,2Z"/><path class="cls-3" d="M24.3,133.33H19.44a1,1,0,0,1,0-2H24.3a1,1,0,0,1,0,2Z"/><path class="cls-2" d="M285.18,203.38H271.06a2,2,0,0,1-1.56-.76,2,2,0,0,1-.39-1.66,38.39,38.39,0,0,0-.24-18,2,2,0,0,1,.77-2.1c7.26-5.22,13-5.07,17,.45a2,2,0,0,1,.35.84,63.13,63.13,0,0,1,.18,19.5A2,2,0,0,1,285.18,203.38Z"/><path class="cls-3" d="M280.8,189.24H276a1,1,0,1,1,0-2h4.85a1,1,0,0,1,0,2Z"/><path class="cls-3" d="M280.8,192.79H276a1,1,0,0,1,0-2h4.85a1,1,0,0,1,0,2Z"/><path class="cls-3" d="M280.8,196.34H276a1,1,0,0,1,0-2h4.85a1,1,0,0,1,0,2Z"/><path class="cls-4" d="M338.58,289.69a.52.52,0,0,1-.52.53H2.43a.53.53,0,1,1,0-1.05H338.06a.51.51,0,0,1,.52.52Z"/><path class="cls-1" d="M90.44,257.36l-.88-12.24A39.45,39.45,0,0,0,71,241c9.06,7,8.34,21,14.62,30.6a23.82,23.82,0,0,0,17.76,10.53l7.54,4.34a39.9,39.9,0,0,0-9.29-32.11,38.78,38.78,0,0,0-7.26-6.39C92.69,252.66,90.44,257.36,90.44,257.36Z"/><path class="cls-1" d="M250.05,259.13l.88-12.24a39.69,39.69,0,0,1,18.59-4.17c-9.06,7-8.34,21-14.62,30.6a23.82,23.82,0,0,1-17.76,10.53l-7.55,4.34a39.92,39.92,0,0,1,9.3-32.1,38.43,38.43,0,0,1,7.26-6.39C247.8,254.44,250.05,259.13,250.05,259.13Z"/><circle class="cls-5" cx="166.25" cy="112.54" r="8.43"/><path class="cls-3" d="M170.58,109a.68.68,0,0,0-.94,0,28,28,0,0,0-4.79,4.88l-1-2c-.39-.77-1.54-.09-1.15.67l1.5,2.89a.67.67,0,0,0,.92.23.84.84,0,0,0,.23-.23,26.74,26.74,0,0,1,5.25-5.53A.66.66,0,0,0,170.58,109Z"/><path class="cls-6" d="M128.52,136.45l-12.71-20,14.72-7.88,3.87,15.23,27.22,14.72a5.88,5.88,0,1,1-3.35,8Z"/><path class="cls-7" d="M106.52,92.53c-4,5.87,10.2,27.19,10.2,27.19.69-1.49,7.3,15.25,8.41,14.26,3.15-2.81,8.08-10.64,10.81-11,1.57-.2-3.63-11.3-3.63-11.3s-2.37-6.56-5.6-14.94a15,15,0,0,0-10.93-9.56S110.51,86.67,106.52,92.53Z"/><polygon class="cls-6" points="106.71 283.64 112.75 283.64 115.62 260.35 106.71 260.35 106.71 283.64"/><path class="cls-8" d="M105.17,281.67h1.7l6.64-2.7,3.55,2.7h0a7.57,7.57,0,0,1,7.57,7.57v.25H105.17Z"/><polygon class="cls-6" points="134.77 283.64 140.81 283.64 143.68 260.35 134.77 260.35 134.77 283.64"/><path class="cls-8" d="M133.23,281.67h1.7l6.63-2.7,3.56,2.7h0a7.58,7.58,0,0,1,7.58,7.57v.25H133.23Z"/><path class="cls-8" d="M137.38,156.3l-39.28,1c-7.46,4.05-7.57,12.82-5.13,23.24,0,0-.82,6.18.83,7.83s2.48,1.65,1.65,4.54,3.53,7.61,3,8.14a22,22,0,0,0-1.76,3.41L100.81,228s2.89,40.84,3.72,41.67,1.65,0,.82,2.06-1.65,1.24-.82,2.06a30.42,30.42,0,0,1,2.06,2.48h10s.76-4.13.76-4.54.82-2.89.82-3.3-.73-1.14-.73-1.14a14.09,14.09,0,0,1-.51-2.57c0-.83-2.47-32.59-2.47-32.59l4.95-41.26,12,40.43s0,35.48.83,36.31.82.41.41,2.06-2.06,1.24-.82,2.47,1.65-.82,1.23,1.24l-.41,2.06,12.38.18s1.65-3.48.82-4.71-.77-.9.23-2.93,1.42-2.44,1-2.85-.41-2.61-.41-2.61L144.54,223s-.41-41.67-.41-42.91a4.2,4.2,0,0,1,.34-1.85v-1.68l-1.58-6Z"/><circle class="cls-6" cx="113.79" cy="62.43" r="12.2"/><path class="cls-7" d="M119.89,82.7c2.63,1.56,4.2,4.43,5.1,7.35a69.92,69.92,0,0,1,3,16.66l1,16.93,11.81,36c-10.23,8.66-48.71,2-48.71,2s-1.18-.4,0-1.58,2.33-.13,1.15-1.31-.36.13,0-1,0-.39-.39-.79,3-3.93,3-3.93L92.73,132.3,88.79,90.57C93.51,84.66,103,81.18,103,81.18l2.46-4.42,12.27,1Z"/><path class="cls-8" d="M123.85,55.94a5.74,5.74,0,0,1,2,2.83,41,41,0,0,0,0-5.54c-.14-1.3-1-1.59-2.11-1.93s-2-.65-2.32-1.91c-3.84-3.73-10.52-3.54-15.09-2.24-2.51.72-4,1.64-4.09,2.18l0,.11-.1.05c-1.94,1-2.31,4-2.29,6.43.05,4.51,1.61,9.64,2.48,10.06,0,0,.06,0,.08,0h0c1.33-1,2.94.08,3.65.7a12.68,12.68,0,0,1,11.36-10.76,20.89,20.89,0,0,0,2.74-.46,6.05,6.05,0,0,1,1.4-.19A4.07,4.07,0,0,1,123.85,55.94Z"/><path class="cls-9" d="M199.61,166l23.47-23.84,6.19-19.07-10-4c-4.93,5-10,20.2-10,20.2l-16,21.51-.38.16a4.74,4.74,0,1,0,6.71,5.07Z"/><path class="cls-5" d="M216.6,121.28l12.58,3.64h0c4.63-.9,8.29-8.59,10.54-14.88a8.7,8.7,0,0,0-4.71-10.9h0a8.69,8.69,0,0,0-9.09,1.39l-6.28,5.4Z"/><polygon class="cls-9" points="205.83 282.93 199.06 282.93 195.84 256.82 205.83 256.82 205.83 282.93"/><path class="cls-8" d="M207.56,280.72h-1.91l-7.44-3-4,3h0a8.49,8.49,0,0,0-8.49,8.49v.28h21.83Z"/><polygon class="cls-9" points="235.87 282.93 229.1 282.93 225.88 256.82 235.87 256.82 235.87 282.93"/><path class="cls-8" d="M237.59,280.72h-1.9l-7.44-3-4,3h0a8.5,8.5,0,0,0-8.5,8.49v.28h21.83Z"/><path class="cls-8" d="M246.19,170.47A71.73,71.73,0,0,1,245,189c-2,9.09-2,34.69-2,34.69l-4.34,49.89-13-1.19L222.08,189,209.43,217.1l1.19,4L209,222s1.18,7.71.39,7.71a9.41,9.41,0,0,0-2.76,1.18l1.58,40.71-13.44-.4-4.74-57.3,5.13-32.8.4-6.33,1.78.08.9-2.65L200,167.7Z"/><path class="cls-5" d="M246.87,172.46l.07-.1c3.76-5.27-1.9-17.92-2.75-19.76l3.6-1.16-.81-6.88-.39-3.07,2.75-2.75v-.07l1.58-13.83,2.3-9.19a20.17,20.17,0,0,0-5.73-19.54l-5.31-5-6.46-9.56H225.32l-3.57,6.75A15.17,15.17,0,0,0,210,103.78l.81,17.69-3.17,22v4l-3.57,4,.78,3.89-2.71,1.16-1.2,5.59c-.5.66-3.77,5-3.77,6.21,0,.18.13.35.42.55,2.23,1.51,14.55,4.58,20,2.4,5.81-2.32,28.91,1.16,29.14,1.2Z"/><circle class="cls-9" cx="229.18" cy="64.67" r="13.79"/><path class="cls-8" d="M227.86,78.68a36.94,36.94,0,0,0,6.37-.61c2.08-.48,6.66-4,7.91-6.12h0a18.61,18.61,0,0,0,1.8-5.72A16.76,16.76,0,0,0,240.66,53a5.38,5.38,0,0,0-2.18-1.77l-.24-.07a6.5,6.5,0,0,1-3.3-1.93,7.14,7.14,0,0,0-.56-.54,8.14,8.14,0,0,0-3.4-1.6c-2-.48-4.88.13-8.54,1.8a9,9,0,0,1-5.46.31.5.5,0,0,0-.47.18,3.64,3.64,0,0,1-2.43,1c-.56,0-1.13.83-1.81,1.86-.16.23-.34.5-.47.67l0-.31-.31.35a4.39,4.39,0,0,0,.46,6.19,4.52,4.52,0,0,0,1.7.91,8.45,8.45,0,0,0,1.73.22c.35,0,.72,0,1.07.1a6.62,6.62,0,0,1,5,4.16,1.72,1.72,0,0,0,2.24,1,1.47,1.47,0,0,0,.39-.21,2.82,2.82,0,0,1,2.59-.54,1.87,1.87,0,0,1,.86.92,2.45,2.45,0,0,0,1,1.07c1.43.7,1.62,3.93,1.18,6.64s-1.35,4.52-2.24,4.64c-.69.09-.77.14-.82.26l0,.11.08.1A2.73,2.73,0,0,0,227.86,78.68Z"/><path class="cls-9" d="M216.42,122.75l-6.63-8.45c-6.75,1.86-18.73,12.54-18.73,12.54l-24.61,10.68a4.74,4.74,0,1,0,2.88,7.68l32.23-9Z"/><path class="cls-5" d="M214.83,124.68,225.29,113l.58-8.26a8.72,8.72,0,0,0-4.33-8.12h0A8.69,8.69,0,0,0,210,99.38c-3.69,5.57-7.67,13.1-5.62,17.35l0,0Z"/><path class="cls-2" d="M118.43,168.5,91.25,154.58c-1.94-1-2.58-3.61-1.43-5.85l17.72-34.61c1.15-2.24,3.66-3.25,5.59-2.26l27.18,13.92c1.94,1,2.58,3.62,1.43,5.85L124,166.24C122.87,168.48,120.36,169.49,118.43,168.5Z"/><path class="cls-3" d="M113.79,162.1l-18.47-9.45A4,4,0,0,1,94,147.16l14.73-28.75a4,4,0,0,1,5.23-2.12l22.3,11.43c1.81.92,2.41,3.38,1.34,5.48l-8,15.62C124.8,158.16,121.85,166.24,113.79,162.1Z"/><path class="cls-5" d="M122.92,146.4,106.56,138a1,1,0,0,1,.92-1.81l16.36,8.38a1,1,0,0,1,.24,1.43A1,1,0,0,1,122.92,146.4Z"/><path class="cls-5" d="M108.47,143.5l-3.73-1.91a1,1,0,0,1,.92-1.81l3.73,1.92a1,1,0,0,1,.24,1.42A1,1,0,0,1,108.47,143.5Z"/><path class="cls-5" d="M113.26,150.44l-10.35-5.29a1,1,0,0,1,.93-1.81l10.34,5.3a1,1,0,0,1,.24,1.43,1,1,0,0,1-1.16.37Z"/><path class="cls-5" d="M129.39,133.76,113,125.39a1,1,0,0,1,.93-1.81L130.31,132a1,1,0,0,1,.24,1.43A1,1,0,0,1,129.39,133.76Z"/><path class="cls-5" d="M114.94,130.86,111.21,129a1,1,0,0,1,.92-1.81l3.74,1.92a1,1,0,0,1,.23,1.42A1,1,0,0,1,114.94,130.86Z"/><path class="cls-5" d="M119.73,137.8l-10.34-5.29a1,1,0,0,1,.92-1.81l10.34,5.3a1,1,0,0,1,.24,1.43,1,1,0,0,1-1.16.37Z"/><path class="cls-6" d="M95.91,138.38l-6.15-22.87,16.41-3.1-.88,15.69,21.56,22.2a5.89,5.89,0,1,1-5.59,6.64Z"/><path class="cls-7" d="M88.08,89.88c-5.57,4.4,1.58,29,1.58,29,1.11-1.22,2.4,16.73,3.75,16.12,3.85-1.73,10.89-7.73,13.61-7.24,1.55.28-.07-11.87-.07-11.87s-.3-7-.87-15.93a15,15,0,0,0-7.55-12.4S93.66,85.48,88.08,89.88Z"/><path class="cls-2" d="M180.77,189.12l-14.83-7a2.3,2.3,0,0,1-1.28-1.57,2.27,2.27,0,0,1,.43-1.93,44.81,44.81,0,0,0,8.61-18.76A2.31,2.31,0,0,1,176,158c7.57,0,13.22,2.79,16.8,8.21a2.32,2.32,0,0,1,.31,2,73,73,0,0,1-9.37,20.15A2.31,2.31,0,0,1,180.77,189.12Z"/><path class="cls-3" d="M185.13,179.3l-11.34-5.36a1.18,1.18,0,0,1,1-2.13h0l11.34,5.36a1.16,1.16,0,0,1,.56,1.56,1.19,1.19,0,0,1-1.57.57Z"/><path class="cls-3" d="M186.9,175.56l-11.35-5.35a1.18,1.18,0,1,1,1-2.13h0l11.34,5.36a1.17,1.17,0,0,1-1,2.12Z"/><path class="cls-1" d="M171.74,58.43l-1.06.12c-4.7-18.5-13.83-31.32-26.38-37.06-16-7.31-35.7-2.4-55.58,13.81s-37.66,42-49.8,72.49l-1-.47C50.09,76.74,67.86,50.87,88,34.48s40.33-21.41,56.71-13.91C157.58,26.48,166.94,39.57,171.74,58.43Z"/><path class="cls-1" d="M55.26,82.52c-2.76,5.82-5.39,11.85-7.81,17.91-13.91,34.92-21,70.58-20.39,103.13L26,203.44C25.4,170.77,32.47,135,46.43,100c2.43-6.09,5.06-12.13,7.83-18Z"/><path class="cls-1" d="M54.74,106.52c-2.76,5.81-5.39,11.84-7.81,17.91C33,159.34,26,195,26.54,227.55l-1.09-.11C24.87,194.77,32,159,45.91,124c2.42-6.09,5.06-12.13,7.83-18Z"/><ellipse class="cls-4" cx="21.74" cy="112.74" rx="3.93" ry="4.52" transform="translate(-84.16 68.39) rotate(-56.36)"/><ellipse class="cls-4" cx="277.77" cy="178" rx="3.93" ry="4.52" transform="translate(-24.29 310.67) rotate(-56.36)"/></svg>