<?xml version="1.0" encoding="utf-8"?>
<!-- Generator: Adobe Illustrator 24.0.1, SVG Export Plug-In . SVG Version: 6.00 Build 0)  -->
<svg version="1.1" id="Layer_1" xmlns="http://www.w3.org/2000/svg" xmlns:xlink="http://www.w3.org/1999/xlink" x="0px" y="0px"
	 viewBox="0 0 727.8 236.5" style="enable-background:new 0 0 727.8 236.5;" xml:space="preserve">
<style type="text/css">
	.st0{fill:#231F20;}
	.st1{fill:#FFFFFF;}
	.st2{fill:#FBD551;}
	.st3{fill:none;stroke:#FBD551;stroke-width:3.3;stroke-linecap:round;stroke-linejoin:round;stroke-miterlimit:10;}
</style>
<g>
	<g>
		<path class="st0" d="M284.8,125.4l-4.2-13.7H250l-4.2,13.7c-1.1,3.7-4.6,6.3-8.5,6.3h0c-6.1,0-10.4-6.1-8.4-11.9l21.8-62.1
			c2.2-6.1,8-10.3,14.5-10.3h0c6.5,0,12.3,4.1,14.5,10.2l21.9,62.1c2,5.8-2.3,11.9-8.4,11.9l0,0
			C289.4,131.7,285.9,129.1,284.8,125.4z M276.4,96.8l-6.1-19.5c-0.4-1.3-0.9-3-1.5-5c-0.6-2-1.3-4.1-1.9-6.3
			c-0.6-2.1-1.1-4-1.5-5.5c-0.4,1.6-0.9,3.5-1.6,5.8c-0.7,2.3-1.3,4.5-1.9,6.6c-0.6,2.1-1.1,3.5-1.3,4.4l-6,19.5H276.4z"/>
		<path class="st0" d="M316.4,124.1V56.7c0-4.9,4-8.9,8.9-8.9h0c4.9,0,8.9,4,8.9,8.9V117h26.7c4.1,0,7.3,3.3,7.3,7.3v0
			c0,4.1-3.3,7.3-7.3,7.3H324C319.8,131.7,316.4,128.3,316.4,124.1z"/>
		<path class="st0" d="M382.8,59.1c0-6.3,5.1-11.3,11.3-11.3h14.8c11.2,0,19.6,1.6,25.4,4.7c5.7,3.1,8.6,8.6,8.6,16.5
			c0,3.2-0.5,6-1.5,8.6c-1,2.6-2.5,4.7-4.4,6.3c-1.9,1.6-4.2,2.7-7,3.2v0.6c2.8,0.6,5.3,1.6,7.6,3c2.3,1.4,4.1,3.4,5.4,6.1
			c1.4,2.7,2,6.2,2,10.6c0,5.1-1.2,9.4-3.7,13.1c-2.5,3.6-6,6.4-10.6,8.3c-4.6,1.9-10.1,2.9-16.4,2.9h-20.1
			c-6.3,0-11.3-5.1-11.3-11.3V59.1z M400.6,81h10.3c5.2,0,8.7-0.8,10.7-2.4c2-1.6,3-4,3-7.2c0-3.2-1.2-5.5-3.5-6.9
			c-2.4-1.4-6.1-2.1-11.2-2.1h-9.4V81z M400.6,95.1V117h11.6c5.4,0,9.1-1,11.2-3.1c2.1-2.1,3.2-4.8,3.2-8.3c0-2.1-0.5-3.9-1.4-5.5
			c-0.9-1.6-2.5-2.8-4.6-3.7c-2.2-0.9-5.1-1.3-8.9-1.3H400.6z"/>
		<path class="st0" d="M511.3,108.4c0,5-1.2,9.3-3.6,13c-2.4,3.7-5.9,6.5-10.5,8.5c-4.6,2-10.2,3-16.8,3c-2.9,0-5.7-0.2-8.5-0.6
			c-2.8-0.4-5.4-0.9-8-1.7c-0.6-0.2-1.3-0.4-1.9-0.6c-3.2-1.1-5.4-4-5.4-7.4v0c0-5.3,5.2-9,10.3-7.3c0.7,0.2,1.4,0.5,2.1,0.7
			c4.3,1.4,8.5,2.1,12.7,2.1c2.9,0,5.3-0.4,7-1.1c1.8-0.8,3.1-1.8,3.9-3.2c0.8-1.3,1.2-2.9,1.2-4.6c0-2.1-0.7-3.9-2.1-5.4
			c-1.4-1.5-3.4-2.9-5.8-4.2c-2.5-1.3-5.3-2.7-8.3-4.2c-2-0.9-4.1-2-6.4-3.4c-2.3-1.3-4.5-2.9-6.5-4.8c-2.1-1.9-3.8-4.2-5.1-7
			c-1.3-2.7-2-6-2-9.8c0-5,1.1-9.3,3.4-12.9s5.6-6.3,9.8-8.2c4.3-1.9,9.3-2.8,15.1-2.8c4.4,0,8.5,0.5,12.5,1.5
			c1.6,0.4,3.2,0.9,4.9,1.4c4.2,1.4,6.3,6,4.6,10.1l0,0c-1.5,3.7-5.6,5.5-9.4,4.2c-1.3-0.4-2.6-0.8-3.8-1.2
			c-3.1-0.9-6.2-1.3-9.4-1.3c-2.2,0-4.1,0.4-5.7,1.1s-2.8,1.7-3.6,3c-0.8,1.3-1.2,2.8-1.2,4.4c0,2,0.6,3.7,1.7,5
			c1.2,1.4,2.9,2.7,5.3,3.9c2.4,1.3,5.3,2.7,8.8,4.4c4.3,2,7.9,4.1,11,6.3c3,2.2,5.4,4.8,7,7.7C510.4,100.3,511.3,104,511.3,108.4z"
			/>
		<path class="st0" d="M570.2,131.7c-4.9,0-9.2-3.2-10.7-7.9l-17.8-57.9h-0.5c0.1,1.6,0.2,3.9,0.4,7.1c0.2,3.2,0.3,6.5,0.5,10.1
			c0.2,3.6,0.2,6.8,0.2,9.6v31.1c0,4.4-3.6,7.9-7.9,7.9h0c-4.4,0-7.9-3.6-7.9-7.9v-62c0-7.7,6.2-13.9,13.9-13.9l0,0
			c6.1,0,11.5,4,13.3,9.8l16.8,54.3h0.3l17.9-54.5c1.9-5.8,7.3-9.7,13.3-9.7l0,0c7.8,0,14,6.3,14,14v61.6c0,4.6-3.7,8.3-8.3,8.3l0,0
			c-4.6,0-8.3-3.7-8.3-8.3V92c0-2.6,0-5.7,0.1-9.1c0.1-3.4,0.2-6.7,0.4-9.8c0.2-3.1,0.3-5.5,0.3-7h-0.5l-19.1,58
			C579.3,128.6,575,131.7,570.2,131.7L570.2,131.7z"/>
		<path class="st0" d="M697.1,131.7L697.1,131.7c-4.9,0-8.9-4-8.9-8.9V95.5h-33.2v27.3c0,4.9-4,8.9-8.9,8.9h-0.1
			c-4.9,0-8.9-4-8.9-8.9V56.7c0-4.9,4-8.9,8.9-8.9h0.1c4.9,0,8.9,4,8.9,8.9v24h33.2v-24c0-4.9,4-8.9,8.9-8.9l0,0
			c4.9,0,8.9,4,8.9,8.9v66.2C706,127.7,702,131.7,697.1,131.7z"/>
	</g>
	<g>
		<path class="st0" d="M220.6,151.6h9.8c4.3,0,7.6,0.6,9.7,1.9c2.2,1.3,3.3,3.4,3.3,6.5c0,1.3-0.2,2.5-0.7,3.5
			c-0.5,1-1.2,1.9-2.1,2.6c-0.9,0.7-2,1.1-3.4,1.4v0.2c1.4,0.2,2.6,0.6,3.7,1.3c1.1,0.6,1.9,1.5,2.6,2.6c0.6,1.1,0.9,2.5,0.9,4.3
			c0,2.1-0.5,3.8-1.5,5.3c-1,1.4-2.4,2.5-4.1,3.3c-1.8,0.8-3.9,1.1-6.4,1.1h-11.9V151.6z M225.4,165.9h5.9c2.7,0,4.6-0.4,5.7-1.3
			c1.1-0.9,1.6-2.2,1.6-3.9c0-1.8-0.6-3.1-1.9-3.8c-1.3-0.8-3.2-1.2-6-1.2h-5.3V165.9z M225.4,169.8v11.7h6.5c2.8,0,4.8-0.5,5.9-1.6
			c1.2-1.1,1.7-2.6,1.7-4.4c0-1.2-0.3-2.2-0.8-3c-0.5-0.8-1.4-1.5-2.5-1.9c-1.2-0.4-2.7-0.7-4.7-0.7H225.4z"/>
		<path class="st0" d="M277.8,151.6v22c0,2.4-0.5,4.5-1.5,6.4c-1,1.9-2.5,3.4-4.4,4.4c-2,1.1-4.5,1.6-7.5,1.6
			c-4.3,0-7.5-1.1-9.7-3.4c-2.2-2.3-3.4-5.3-3.4-9.1v-21.9h4.8v21.7c0,2.9,0.7,5,2.1,6.5c1.4,1.5,3.6,2.2,6.4,2.2
			c1.9,0,3.5-0.4,4.8-1.1s2.2-1.7,2.8-3c0.6-1.3,0.9-2.8,0.9-4.6v-21.7H277.8z"/>
		<path class="st0" d="M306,176.4c0,2-0.5,3.7-1.5,5.2c-1,1.4-2.4,2.5-4.2,3.3c-1.8,0.8-4,1.1-6.5,1.1c-1.3,0-2.4-0.1-3.6-0.2
			c-1.1-0.1-2.2-0.3-3.2-0.6c-1-0.2-1.9-0.6-2.6-0.9v-4.5c1.3,0.5,2.8,1,4.5,1.5c1.7,0.5,3.4,0.7,5.2,0.7c1.6,0,2.9-0.2,3.9-0.6
			c1.1-0.4,1.9-1,2.4-1.8c0.5-0.8,0.8-1.7,0.8-2.8c0-1.1-0.3-2-0.8-2.7c-0.5-0.7-1.4-1.4-2.5-2c-1.1-0.6-2.6-1.3-4.5-2
			c-1.3-0.5-2.5-1-3.5-1.6c-1.1-0.6-2-1.3-2.7-2.1c-0.8-0.8-1.4-1.7-1.8-2.7c-0.4-1-0.6-2.2-0.6-3.6c0-1.9,0.5-3.5,1.4-4.8
			c0.9-1.3,2.2-2.3,3.9-3.1c1.7-0.7,3.6-1.1,5.8-1.1c1.8,0,3.5,0.2,5,0.5c1.6,0.4,3,0.8,4.4,1.5l-1.5,3.9c-1.3-0.5-2.6-1-4-1.3
			c-1.3-0.3-2.7-0.5-4.1-0.5c-1.3,0-2.4,0.2-3.3,0.6c-0.9,0.4-1.6,0.9-2.1,1.6c-0.5,0.7-0.7,1.6-0.7,2.5c0,1.1,0.2,2,0.7,2.7
			c0.5,0.7,1.3,1.4,2.3,2c1.1,0.6,2.5,1.2,4.2,1.9c1.9,0.7,3.6,1.5,4.9,2.4c1.4,0.8,2.4,1.8,3.1,3C305.7,173.2,306,174.6,306,176.4z
			"/>
		<path class="st0" d="M312.7,185.6v-33.9h4.8v33.9H312.7z"/>
		<path class="st0" d="M354.1,185.6h-5.7l-17.6-27.8h-0.2c0,0.8,0.1,1.8,0.2,2.8c0.1,1,0.1,2,0.2,3.1c0,1.1,0.1,2.2,0.1,3.3v18.6
			h-4.4v-33.9h5.7l17.5,27.7h0.2c0-0.7-0.1-1.5-0.1-2.5c0-1-0.1-2.1-0.1-3.2c0-1.1-0.1-2.2-0.1-3.2v-18.8h4.4V185.6z"/>
		<path class="st0" d="M382.2,185.6h-19.1v-33.9h19.1v4.1h-14.3v10.1h13.4v4h-13.4v11.6h14.3V185.6z"/>
		<path class="st0" d="M409,176.4c0,2-0.5,3.7-1.5,5.2c-1,1.4-2.4,2.5-4.2,3.3c-1.8,0.8-4,1.1-6.5,1.1c-1.3,0-2.4-0.1-3.6-0.2
			c-1.1-0.1-2.2-0.3-3.2-0.6c-1-0.2-1.9-0.6-2.6-0.9v-4.5c1.3,0.5,2.8,1,4.5,1.5c1.7,0.5,3.4,0.7,5.2,0.7c1.6,0,2.9-0.2,3.9-0.6
			c1.1-0.4,1.9-1,2.4-1.8c0.5-0.8,0.8-1.7,0.8-2.8c0-1.1-0.3-2-0.8-2.7c-0.5-0.7-1.4-1.4-2.5-2c-1.1-0.6-2.6-1.3-4.5-2
			c-1.3-0.5-2.5-1-3.5-1.6c-1.1-0.6-2-1.3-2.7-2.1c-0.8-0.8-1.4-1.7-1.8-2.7c-0.4-1-0.6-2.2-0.6-3.6c0-1.9,0.5-3.5,1.4-4.8
			c0.9-1.3,2.2-2.3,3.9-3.1c1.7-0.7,3.6-1.1,5.8-1.1c1.8,0,3.5,0.2,5,0.5c1.6,0.4,3,0.8,4.4,1.5l-1.5,3.9c-1.3-0.5-2.6-1-4-1.3
			c-1.3-0.3-2.7-0.5-4.1-0.5c-1.3,0-2.4,0.2-3.3,0.6c-0.9,0.4-1.6,0.9-2.1,1.6c-0.5,0.7-0.7,1.6-0.7,2.5c0,1.1,0.2,2,0.7,2.7
			c0.5,0.7,1.3,1.4,2.3,2c1.1,0.6,2.5,1.2,4.2,1.9c1.9,0.7,3.6,1.5,4.9,2.4c1.4,0.8,2.4,1.8,3.1,3C408.6,173.2,409,174.6,409,176.4z
			"/>
		<path class="st0" d="M435.1,176.4c0,2-0.5,3.7-1.5,5.2c-1,1.4-2.4,2.5-4.2,3.3c-1.8,0.8-4,1.1-6.5,1.1c-1.3,0-2.4-0.1-3.6-0.2
			c-1.1-0.1-2.2-0.3-3.2-0.6c-1-0.2-1.9-0.6-2.6-0.9v-4.5c1.3,0.5,2.8,1,4.5,1.5c1.7,0.5,3.4,0.7,5.2,0.7c1.6,0,2.9-0.2,3.9-0.6
			c1.1-0.4,1.9-1,2.4-1.8c0.5-0.8,0.8-1.7,0.8-2.8c0-1.1-0.3-2-0.8-2.7c-0.5-0.7-1.4-1.4-2.5-2c-1.1-0.6-2.6-1.3-4.5-2
			c-1.3-0.5-2.5-1-3.5-1.6c-1.1-0.6-2-1.3-2.7-2.1c-0.8-0.8-1.4-1.7-1.8-2.7c-0.4-1-0.6-2.2-0.6-3.6c0-1.9,0.5-3.5,1.4-4.8
			c0.9-1.3,2.2-2.3,3.9-3.1c1.7-0.7,3.6-1.1,5.8-1.1c1.8,0,3.5,0.2,5,0.5c1.6,0.4,3,0.8,4.4,1.5l-1.5,3.9c-1.3-0.5-2.6-1-4-1.3
			c-1.3-0.3-2.7-0.5-4.1-0.5c-1.3,0-2.4,0.2-3.3,0.6c-0.9,0.4-1.6,0.9-2.1,1.6c-0.5,0.7-0.7,1.6-0.7,2.5c0,1.1,0.2,2,0.7,2.7
			c0.5,0.7,1.3,1.4,2.3,2c1.1,0.6,2.5,1.2,4.2,1.9c1.9,0.7,3.6,1.5,4.9,2.4c1.4,0.8,2.4,1.8,3.1,3
			C434.7,173.2,435.1,174.6,435.1,176.4z"/>
		<path class="st0" d="M473.5,176.4c0,2-0.5,3.7-1.5,5.2c-1,1.4-2.4,2.5-4.2,3.3c-1.8,0.8-4,1.1-6.5,1.1c-1.3,0-2.4-0.1-3.6-0.2
			c-1.1-0.1-2.2-0.3-3.2-0.6c-1-0.2-1.9-0.6-2.6-0.9v-4.5c1.3,0.5,2.8,1,4.5,1.5c1.7,0.5,3.4,0.7,5.2,0.7c1.6,0,2.9-0.2,3.9-0.6
			c1.1-0.4,1.9-1,2.4-1.8c0.5-0.8,0.8-1.7,0.8-2.8c0-1.1-0.3-2-0.8-2.7c-0.5-0.7-1.4-1.4-2.5-2c-1.1-0.6-2.6-1.3-4.5-2
			c-1.3-0.5-2.5-1-3.5-1.6c-1.1-0.6-2-1.3-2.7-2.1c-0.8-0.8-1.4-1.7-1.8-2.7c-0.4-1-0.6-2.2-0.6-3.6c0-1.9,0.5-3.5,1.4-4.8
			c0.9-1.3,2.2-2.3,3.9-3.1c1.7-0.7,3.6-1.1,5.8-1.1c1.8,0,3.5,0.2,5,0.5c1.6,0.4,3,0.8,4.4,1.5l-1.5,3.9c-1.3-0.5-2.6-1-4-1.3
			c-1.3-0.3-2.7-0.5-4.1-0.5c-1.3,0-2.4,0.2-3.3,0.6c-0.9,0.4-1.6,0.9-2.1,1.6c-0.5,0.7-0.7,1.6-0.7,2.5c0,1.1,0.2,2,0.7,2.7
			c0.5,0.7,1.3,1.4,2.3,2c1.1,0.6,2.5,1.2,4.2,1.9c1.9,0.7,3.6,1.5,4.9,2.4c1.4,0.8,2.4,1.8,3.1,3
			C473.2,173.2,473.5,174.6,473.5,176.4z"/>
		<path class="st0" d="M510,168.5c0,2.6-0.3,5-1,7.1c-0.7,2.1-1.7,4-3,5.5s-2.9,2.7-4.9,3.6c-2,0.8-4.2,1.3-6.9,1.3
			c-2.7,0-5-0.4-7-1.3c-2-0.8-3.6-2-4.9-3.6c-1.3-1.5-2.3-3.4-2.9-5.5c-0.6-2.1-1-4.5-1-7.2c0-3.5,0.6-6.5,1.7-9.1
			c1.1-2.6,2.9-4.6,5.2-6.1c2.3-1.4,5.3-2.2,8.9-2.2c3.4,0,6.3,0.7,8.6,2.2c2.3,1.4,4.1,3.5,5.2,6.1C509.4,161.9,510,165,510,168.5z
			 M483.6,168.5c0,2.8,0.4,5.1,1.1,7.1c0.8,2,1.9,3.6,3.5,4.6c1.6,1.1,3.6,1.6,6.1,1.6c2.5,0,4.5-0.5,6.1-1.6
			c1.6-1.1,2.7-2.6,3.5-4.6c0.7-2,1.1-4.4,1.1-7.1c0-4.2-0.9-7.4-2.6-9.8c-1.7-2.4-4.4-3.5-8.1-3.5c-2.5,0-4.5,0.5-6.1,1.6
			c-1.6,1.1-2.8,2.6-3.6,4.6C484,163.4,483.6,165.8,483.6,168.5z"/>
		<path class="st0" d="M517.4,185.6v-33.9h4.8v29.8h14.7v4.1H517.4z"/>
		<path class="st0" d="M568.9,151.6v22c0,2.4-0.5,4.5-1.5,6.4c-1,1.9-2.5,3.4-4.4,4.4c-2,1.1-4.5,1.6-7.5,1.6
			c-4.3,0-7.5-1.1-9.7-3.4c-2.2-2.3-3.4-5.3-3.4-9.1v-21.9h4.8v21.7c0,2.9,0.7,5,2.1,6.5c1.4,1.5,3.6,2.2,6.4,2.2
			c1.9,0,3.5-0.4,4.8-1.1s2.2-1.7,2.8-3c0.6-1.3,0.9-2.8,0.9-4.6v-21.7H568.9z"/>
		<path class="st0" d="M588.8,185.6h-4.8v-29.8h-10.3v-4.1h25.4v4.1h-10.3V185.6z"/>
		<path class="st0" d="M604.3,185.6v-33.9h4.8v33.9H604.3z"/>
		<path class="st0" d="M648,168.5c0,2.6-0.3,5-1,7.1c-0.7,2.1-1.7,4-3,5.5c-1.3,1.5-2.9,2.7-4.9,3.6c-2,0.8-4.2,1.3-6.9,1.3
			c-2.7,0-5-0.4-7-1.3c-2-0.8-3.6-2-4.9-3.6c-1.3-1.5-2.3-3.4-2.9-5.5c-0.6-2.1-1-4.5-1-7.2c0-3.5,0.6-6.5,1.7-9.1
			c1.1-2.6,2.9-4.6,5.2-6.1c2.3-1.4,5.3-2.2,8.9-2.2c3.4,0,6.3,0.7,8.6,2.2c2.3,1.4,4.1,3.5,5.2,6.1C647.4,161.9,648,165,648,168.5z
			 M621.5,168.5c0,2.8,0.4,5.1,1.1,7.1c0.8,2,1.9,3.6,3.5,4.6c1.6,1.1,3.6,1.6,6.1,1.6c2.5,0,4.5-0.5,6.1-1.6
			c1.6-1.1,2.7-2.6,3.5-4.6c0.7-2,1.1-4.4,1.1-7.1c0-4.2-0.9-7.4-2.6-9.8c-1.7-2.4-4.4-3.5-8.1-3.5c-2.5,0-4.5,0.5-6.1,1.6
			c-1.6,1.1-2.8,2.6-3.6,4.6C621.9,163.4,621.5,165.8,621.5,168.5z"/>
		<path class="st0" d="M682.8,185.6h-5.7l-17.6-27.8h-0.2c0,0.8,0.1,1.8,0.2,2.8c0.1,1,0.1,2,0.2,3.1c0,1.1,0.1,2.2,0.1,3.3v18.6
			h-4.4v-33.9h5.7l17.5,27.7h0.2c0-0.7-0.1-1.5-0.1-2.5c0-1-0.1-2.1-0.1-3.2c0-1.1-0.1-2.2-0.1-3.2v-18.8h4.4V185.6z"/>
		<path class="st0" d="M711.3,176.4c0,2-0.5,3.7-1.5,5.2c-1,1.4-2.4,2.5-4.2,3.3c-1.8,0.8-4,1.1-6.5,1.1c-1.3,0-2.4-0.1-3.6-0.2
			c-1.1-0.1-2.2-0.3-3.2-0.6c-1-0.2-1.9-0.6-2.6-0.9v-4.5c1.3,0.5,2.8,1,4.5,1.5c1.7,0.5,3.4,0.7,5.2,0.7c1.6,0,2.9-0.2,3.9-0.6
			c1.1-0.4,1.9-1,2.4-1.8c0.5-0.8,0.8-1.7,0.8-2.8c0-1.1-0.3-2-0.8-2.7c-0.5-0.7-1.4-1.4-2.5-2c-1.1-0.6-2.6-1.3-4.5-2
			c-1.3-0.5-2.5-1-3.5-1.6c-1.1-0.6-2-1.3-2.7-2.1c-0.8-0.8-1.4-1.7-1.8-2.7c-0.4-1-0.6-2.2-0.6-3.6c0-1.9,0.5-3.5,1.4-4.8
			c0.9-1.3,2.2-2.3,3.9-3.1c1.7-0.7,3.6-1.1,5.8-1.1c1.8,0,3.5,0.2,5,0.5c1.6,0.4,3,0.8,4.4,1.5l-1.5,3.9c-1.3-0.5-2.6-1-4-1.3
			c-1.3-0.3-2.7-0.5-4.1-0.5c-1.3,0-2.4,0.2-3.3,0.6c-0.9,0.4-1.6,0.9-2.1,1.6c-0.5,0.7-0.7,1.6-0.7,2.5c0,1.1,0.2,2,0.7,2.7
			c0.5,0.7,1.3,1.4,2.3,2c1.1,0.6,2.5,1.2,4.2,1.9c1.9,0.7,3.6,1.5,4.9,2.4c1.4,0.8,2.4,1.8,3.1,3
			C710.9,173.2,711.3,174.6,711.3,176.4z"/>
	</g>
</g>
<g>
	<path class="st2" d="M16.9,140v-37.8c0-1.6-1.3-3-3-3c-1.6,0-3,1.3-3,3V140c0,1.6,1.3,3,3,3C15.5,143,16.9,141.6,16.9,140z"/>
	<path class="st2" d="M94.8,6.9c-21.1,0-41.2,7.9-56.8,22.2C22.6,43.3,13.1,62.6,11.2,83.4c-0.1,0.8,0.2,1.7,0.8,2.3
		c0.6,0.6,1.4,1,2.2,1h0.1c1.5,0,2.8-1.2,2.9-2.7c3.5-39.8,37.6-71,77.6-71c24.4,0,47.8,11.7,62.4,31.4c0.6,0.7,1.4,1.2,2.4,1.2
		c0.6,0,1.2-0.2,1.7-0.5c0.7-0.5,1.1-1.2,1.3-2c0.1-0.8-0.1-1.6-0.5-2.3C146.2,19.5,121,6.9,94.8,6.9z"/>
	<path class="st2" d="M178.6,141.1V90.8c0-11.6-2.3-22.9-7-33.4c-0.5-1.1-1.5-1.8-2.7-1.8c-0.6,0-1.2,0.2-1.7,0.5
		c-1.2,0.8-1.6,2.3-1.1,3.6c4.3,9.8,6.5,20.3,6.5,31.1l0,51.6c0,3-0.1,6.1-0.3,9.1c-0.1,0.8,0.2,1.6,0.7,2.1
		c0.5,0.6,1.3,0.9,2.1,0.9c1.2,0,2.6-0.8,2.8-2.5c0.4-3.4,0.6-6.8,0.6-10.2L178.6,141.1z"/>
	<path class="st2" d="M33.1,141.8l0-0.7V90.8C33,69.1,44.2,49.4,62.8,38c1.2-0.8,1.7-2.3,1.2-3.7c-0.5-1.1-1.5-1.8-2.7-1.8
		c-0.5,0-1.1,0.1-1.5,0.4C39.2,45.4,27.1,67,27.1,90.8v51.4c-0.2,6-4.5,11.3-10.3,12.6c-0.4,0.1-0.9,0.2-1.3,0.2
		c-1.5,0.2-2.6,1.5-2.6,3.1c0.1,1.6,1.4,2.9,3,2.9c0.1,0,0.3,0,0.4,0c0.6-0.1,1.2-0.2,1.8-0.3C26.7,158.7,33.1,150.8,33.1,141.8z"/>
	<path class="st2" d="M160.4,166.5c0,0.2,0,0.3-0.1,0.5c0,0.2-0.1,0.4-0.1,0.5C160.3,167.1,160.4,166.8,160.4,166.5z"/>
	<path class="st2" d="M162.5,90.8v51c0,7.6-0.6,15.1-1.7,22.4c-0.1,0.6-0.2,1.1-0.3,1.7c0,0.2-0.1,0.3-0.1,0.5
		c-0.1,0.3-0.1,0.7-0.2,1c0,0,0,0,0,0c-1.1,5.3-3.6,17.1-5.5,22.1c-0.1,0.1-0.1,0.3-0.2,0.4c-0.9,2.8-2,5.5-3.1,8.2
		c-1.1,2.7-2.3,5.4-3.6,8c-0.2,0.4-0.5,0.8-0.8,1.1l-0.1,0.1c-0.6,0.4-1.2,0.7-1.9,0.7c-1,0-2-0.6-2.6-1.5c-0.6-0.9-0.6-2-0.1-2.9
		l0.1-0.2c3.1-6.4,5.7-13.1,7.8-19.8c0-0.2,0.1-0.3,0.2-0.5c2.1-7.5,4.4-19.3,4.4-19.5c0,0,0-0.1,0-0.1c1.1-7.2,1.7-14.5,1.7-21.8
		V91.6c0-34.5-27.7-62.5-61.7-62.5h-0.6c-5.1,0.1-10.2,0.7-15.1,2c-0.2,0.1-0.5,0.1-0.8,0.1c-1.2,0-2.3-0.7-2.7-1.8
		c-0.4-0.8-0.3-1.7,0-2.5c0.4-0.8,1.1-1.3,1.9-1.5c5.6-1.5,11.4-2.2,17.3-2.2c18.1,0,35.1,7,47.8,19.9
		C155.4,55.7,162.5,72.7,162.5,90.8z"/>
	<path class="st2" d="M101.8,187.7c-0.2-0.8-0.8-1.4-1.5-1.8c-0.4-0.2-0.9-0.3-1.3-0.3c-1.1,0-2,0.6-2.6,1.5
		c-6.3,11.4-14.8,21.3-25.4,29.4c0,0-0.8,0.6-1.1,0.8c-0.7,0.5-1.1,1.2-1.2,2c-0.1,1.3,0.7,2.4,1.9,2.8l0.8,0.2
		c0.2,0.1,0.5,0.1,0.7,0.1c0.6,0,1.2-0.2,1.6-0.5c1-0.7,2-1.5,3.2-2.5c10.1-8.2,18.4-18.2,24.7-29.5
		C102,189.3,102,188.5,101.8,187.7z"/>
	<path class="st0" d="M71,178.1c6.9-10.8,10.5-23.4,10.5-36.3l0-0.7V90.8c0-7.3,5.9-13.2,13.2-13.2c7.3,0,13.2,5.9,13.2,13.2v51
		l0,0.6c-0.1,9.7-1.6,19.2-4.5,28.2c-0.4,1.4,0.2,2.9,1.5,3.5l0.2,0.1c0.4,0.2,0.8,0.3,1.3,0.3c1.3,0,2.4-0.8,2.8-2
		c3.2-9.9,4.8-20.2,4.8-30.7l0-0.7V90.8c0-10.6-8.6-19.2-19.2-19.2c-10.6,0-19.2,8.6-19.2,19.2v51.6c-0.2,23.7-14.3,45.6-35.9,55.5
		l-1,0.5c-0.8,0.3-1.3,0.9-1.6,1.6c-0.5,1.2-0.2,2.5,0.7,3.4c0.6,0.5,1.3,0.8,2,0.8c0.4,0,0.8-0.1,1.2-0.2c0.8-0.4,1.7-0.8,2.7-1.2
		C54.8,197.1,64.3,188.6,71,178.1z"/>
	<path class="st0" d="M91.8,89.5v18.9c0,1.6,1.3,3,3,3h0.1c1.6,0,3-1.3,3-3V89.5c0-1.6-1.4-3-3-3C93.1,86.5,91.8,87.8,91.8,89.5z"/>
	<path class="st0" d="M97.8,141.8v-14.9c0-1.6-1.3-3-3-3c-1.6,0-3,1.3-3,3v14.9c0,27.2-14.6,52.9-38,66.9c-0.4,0.2-0.8,0.5-1.2,0.7
		c-0.9,0.5-1.4,1.4-1.4,2.4c0,1,0.5,1.9,1.4,2.4l0.4,0.3c0.4,0.2,0.9,0.4,1.4,0.4c0.5,0,1-0.1,1.4-0.4c1-0.6,2-1.2,2.9-1.8
		C83.1,197.2,97.8,170.7,97.8,141.8z"/>
	<path class="st2" d="M65.3,145.8c0.1-0.8-0.2-1.6-0.8-2.2c-0.6-0.6-1.4-1-2.2-1c-1.5,0-2.8,1.2-2.9,2.7
		c-1.4,18-13.3,33.6-30.4,39.5c-0.4,0.1-0.9,0.3-1.3,0.4c-0.9,0.3-1.6,1-1.9,1.9c-0.3,0.9-0.2,1.9,0.4,2.7c0.6,0.8,1.5,1.3,2.5,1.3
		c0.3,0,0.6,0,0.9-0.1c0.8-0.3,1.7-0.5,2.5-0.9C50.6,183.1,63.7,165.7,65.3,145.8z"/>
	<path class="st2" d="M130.1,90.8c0-9.4-3.7-18.3-10.4-25c-6.7-6.7-15.6-10.4-25-10.4c-19.5,0-35.3,15.9-35.3,35.3V127
		c0,1.6,1.3,3,3,3c1.6,0,3-1.3,3-3V90.8c0-16.2,13.2-29.4,29.4-29.4c0.2,0,0.5,0,0.7,0c15.8,0.4,28.7,13.8,28.7,29.9v50.5
		c0,29.4-11.5,57.1-32.3,77.9l-0.8,0.8c-0.9,0.9-1.1,2.1-0.7,3.3c0.5,1.1,1.5,1.9,2.8,1.9h0c0.8,0,1.6-0.3,2.1-0.9l0.8-0.8
		c0.9-0.9,1.6-1.7,2.4-2.5c20.4-21.6,31.6-49.9,31.6-79.7V90.8z"/>
	<path class="st2" d="M49.2,141.8l0-0.7V90.8c0-25.1,20.4-45.5,45.5-45.5c23.5,0,43.5,18.4,45.4,41.8c0.1,1.6,1.4,2.7,3,2.7
		c0.8,0,1.6-0.3,2.2-1c0.6-0.6,0.8-1.4,0.8-2.2c-1-12.1-6.3-23.5-14.9-32.2c-9.7-9.7-22.7-15.1-36.4-15.1
		c-28.4,0-51.5,23.1-51.5,51.5v51.5c-0.2,13.2-9.3,24.7-22,28c-0.5,0.1-1,0.2-1.4,0.3c-0.9,0.2-1.6,0.7-2.1,1.5
		c-0.4,0.8-0.5,1.7-0.1,2.6c0.5,1.1,1.5,1.8,2.7,1.8c0.2,0,0.4,0,0.6-0.1c0.7-0.1,1.5-0.3,2.3-0.6C38.6,171.7,49.2,157.7,49.2,141.8
		z"/>
	<path class="st2" d="M146.3,105.4c0-1.6-1.3-3-3-3c-1.6,0-3,1.3-3,3v36.4c0,27.4-8.6,53.5-25,75.4l-0.3,0.3
		c-0.7,0.9-0.9,2.1-0.4,3.1c0.5,1.1,1.5,1.8,2.7,1.8c0.3,0,0.6,0,0.9-0.1c0.6-0.2,1.2-0.6,1.6-1.1c1.2-1.6,2.3-3.2,3.4-4.8
		c15-21.9,23-47.8,23-74.7V105.4z"/>
</g>
</svg>
