<svg id="Layer_1" data-name="Layer 1" xmlns="http://www.w3.org/2000/svg" viewBox="0 0 506 506"><defs><style>.cls-1{fill:#f2f2f2;}.cls-2{fill:#2f2e41;}.cls-3{fill:#ffb6b6;}.cls-4{fill:#e6e6e6;}.cls-5{fill:#3f3d56;}.cls-6{fill:#ff6584;}.cls-7{fill:#fbd551;}.cls-8{fill:#ccc;}.cls-9{fill:#fff;}</style></defs><title>al bsmh</title><path class="cls-1" d="M313.48,366.65a5.17,5.17,0,0,0,7.24-6.47c.1-.53.18-.9.28-1.43a13.89,13.89,0,0,1,23.35,10.86c-.64,15.59.13,32.41-10.22,45C381.4,376,403,310.14,388.52,251c-7.08-9.88-10.39-23-7.21-34.87,4,3.87,11.76,2.83,10.57-3.88-.64-2.65-1.3-5.3-1.93-7.95,27.22-10.62,34.33,29.86,2.08,46.35a165.11,165.11,0,0,1,4.27,34.3A69.87,69.87,0,0,1,414,257.46c7.73-7,17.95-11,27.46-15.72,11.57-5.7,24.41,5.6,19.86,17.66-7.7-1-13.15,8.22-6.16,13.16-12.28,20.62-35.82,33.73-59.74,33.94a166.42,166.42,0,0,1-21.72,66.7C389,350,418.54,356.66,441.9,355.67a8,8,0,0,1,7.58,12.64,46.49,46.49,0,0,0-9.21.38,7,7,0,0,0-2.57,13c-20.5,18.79-52.26,22.83-77.19,10.84a170.82,170.82,0,0,1-24.81,25.34l-37.07-17.66c.07-.48.15-1,.23-1.43A46.63,46.63,0,0,0,309.4,403c-3.95-15.07-8.36-23.9,4.08-36.39Z"/><path class="cls-1" d="M248,331a5.17,5.17,0,0,1-9.15-3.27c-.29-.45-.51-.76-.8-1.21a13.89,13.89,0,0,0-17.53,18.87c6.47,14.19,12.1,30.05,26.43,37.78-58.35-17.94-103.14-70.76-112.1-131,2.84-11.81,1-25.2-6.47-35-2.23,5.1-9.82,7.06-11.25.4-.41-2.7-.8-5.4-1.21-8.09-29.22.43-20.54,40.6,15.55,43.7a165.47,165.47,0,0,0,9,33.38,69.67,69.67,0,0,0-26.73-18.73c-9.78-3.53-20.79-3.47-31.36-4.2-12.86-.92-20.5,14.39-11.73,23.84,6.76-3.82,15.28,2.65,10.68,9.87,19.14,14.46,45.89,17.72,68.12,8.89a166.38,166.38,0,0,0,45.27,53.58c-22.91-15.75-47.77,1.6-69.78,9.5a8,8,0,0,0-2.25,14.56,46.7,46.7,0,0,1,8.67-3.12,7,7,0,0,1,7.28,11.05c26.07,9.67,57,1.43,75.58-19.07a172,172,0,0,0,32.54,14.11l27.66-30.34c-.24-.42-.5-.84-.75-1.24a46.76,46.76,0,0,1-8.15,7.94c-2-15.45-1.28-25.29-17.5-32.16Z"/><path class="cls-1" d="M255.11,202.79a5.17,5.17,0,0,0,2.4-9.41c-.21-.5-.36-.85-.56-1.35a13.89,13.89,0,0,1,25.44-4c8.16,13.3,18.17,26.83,16.58,43C316.68,172.63,297.88,106,252.89,64.9,241.51,60.65,231.45,51.61,227.46,40c5.47,1,11.34-4.2,6.62-9.11-2-1.85-4-3.68-6-5.52,16.68-24,45.15,5.64,27.57,37.31a166.19,166.19,0,0,1,22.67,26.09,69.8,69.8,0,0,1-.61-32.64c2.54-10.08,8.74-19.18,14-28.36,6.43-11.18,23.39-9,26.33,3.59-6.95,3.47-6.34,14.16,2.22,14.37,1.31,24-10.93,48-30.67,61.47a166.41,166.41,0,0,1,19.16,67.48c-.27-27.8,28-38.73,46.85-52.58a8.05,8.05,0,0,1,13.34,6.27,46.6,46.6,0,0,0-7.43,5.44A7,7,0,0,0,366.6,146c-6.54,27-30.65,48.09-58,52a171.57,171.57,0,0,1-6.47,34.88l-40.62,6c-.21-.43-.41-.87-.61-1.3A47,47,0,0,0,272,235.27c-11.68-10.31-20.26-15.18-16.9-32.48Z"/><path class="cls-2" d="M296,189.77c-18.49,0-28.52-2.26-32-7.09-3.09-4.25-1-9.87,1.39-16.37,1.72-4.67,3.67-10,3.67-15.21,0-25.5,12.93-38.43,38.43-38.43,12.68,0,26.31,6.74,36.43,18,9.21,10.26,13.8,22.54,12.59,33.7h0c-1,9.14-5.25,15.16-13.4,18.93l-.47.22-.14-.51a21.45,21.45,0,0,0-3.51-7.28,24.92,24.92,0,0,1-2.54,9.87l-.09.17-.18.06c-9.23,2.63-20.17,3.34-28.67,3.66C303.3,189.68,299.47,189.77,296,189.77Z"/><path class="cls-3" d="M301,225.29a13.86,13.86,0,0,0-21.55-6.51l-60.82,36.37-19-46.44a13.49,13.49,0,1,0-14.93,5.37c1.17,13.39,7.69,73.24,30.37,71.07,19.06-1.83,66.4-33.36,81.11-44.29A13.87,13.87,0,0,0,301,225.29Z"/><path class="cls-2" d="M346.83,489.41H293.89L285,445.52l-2.88,43.89H233a1004.75,1004.75,0,0,1,5.38-103.19l.61-2.08,1-3.32.61-2.09,10.18-34.94.8-2.78h61.28a90.11,90.11,0,0,1,9.73,10.75c1,1.27,2,2.65,3.11,4.13.74,1.05,1.51,2.16,2.27,3.31A111.22,111.22,0,0,1,343,392.42h0q.81,3,1.43,6.21h0c.37,1.89.7,3.79.95,5.75.2,1.42.37,2.86.49,4.31a98.77,98.77,0,0,1-.77,24.23Z"/><ellipse class="cls-4" cx="64.48" cy="83.73" rx="6.68" ry="4.64" transform="translate(-25.88 28.92) rotate(-21.16)"/><ellipse class="cls-5" cx="107.77" cy="78.18" rx="6.68" ry="4.64" transform="translate(-20.96 44.17) rotate(-21.16)"/><ellipse class="cls-6" cx="60.72" cy="120.67" rx="6.68" ry="4.64" transform="translate(-39.46 30.06) rotate(-21.16)"/><ellipse class="cls-4" cx="48.91" cy="137.18" rx="2.93" ry="4.22" transform="translate(-30.28 14.95) rotate(-13.32)"/><ellipse class="cls-5" cx="48.65" cy="164.76" rx="2.93" ry="4.22" transform="translate(-36.64 15.64) rotate(-13.32)"/><ellipse class="cls-4" cx="86.64" cy="107.64" rx="2.93" ry="4.22" transform="translate(-22.46 22.85) rotate(-13.32)"/><ellipse class="cls-6" cx="63.84" cy="102.1" rx="2.93" ry="4.22" transform="translate(-21.8 17.45) rotate(-13.32)"/><ellipse class="cls-5" cx="88.01" cy="76.7" rx="2.93" ry="4.22" transform="translate(-15.3 22.33) rotate(-13.32)"/><ellipse class="cls-4" cx="95.13" cy="267.37" rx="4.64" ry="6.68" transform="translate(-170.13 166.51) rotate(-49.6)"/><ellipse class="cls-5" cx="69.64" cy="231.95" rx="4.64" ry="6.68" transform="translate(-152.12 134.63) rotate(-49.6)"/><ellipse class="cls-6" cx="129.4" cy="253.08" rx="4.64" ry="6.68" transform="translate(-147.2 187.57) rotate(-49.6)"/><ellipse class="cls-4" cx="149.55" cy="255.61" rx="4.22" ry="2.93" transform="translate(-132.23 164.49) rotate(-41.75)"/><ellipse class="cls-5" cx="173.92" cy="242.71" rx="4.22" ry="2.93" transform="translate(-117.45 177.45) rotate(-41.75)"/><ellipse class="cls-4" cx="105.6" cy="236.5" rx="4.22" ry="2.93" transform="translate(-130.66 130.38) rotate(-41.75)"/><ellipse class="cls-6" cx="111.59" cy="259.18" rx="4.22" ry="2.93" transform="translate(-144.25 140.12) rotate(-41.75)"/><ellipse class="cls-5" cx="77.75" cy="250.03" rx="4.22" ry="2.93" transform="translate(-146.75 115.26) rotate(-41.75)"/><ellipse class="cls-4" cx="268.54" cy="38.53" rx="4.64" ry="6.68" transform="translate(10.56 122.47) rotate(-26.19)"/><ellipse class="cls-5" cx="277.86" cy="81.16" rx="4.64" ry="6.68" transform="translate(-7.3 130.96) rotate(-26.19)"/><ellipse class="cls-6" cx="231.42" cy="38.03" rx="4.64" ry="6.68" transform="translate(6.97 106.03) rotate(-26.19)"/><ellipse class="cls-4" cx="213.93" cy="27.7" rx="4.22" ry="2.93" transform="translate(2.15 68.73) rotate(-18.34)"/><ellipse class="cls-5" cx="186.44" cy="29.86" rx="4.22" ry="2.93" transform="translate(0.08 60.19) rotate(-18.34)"/><ellipse class="cls-4" cx="246.67" cy="62.7" rx="4.22" ry="2.93" transform="translate(-7.2 80.81) rotate(-18.34)"/><ellipse class="cls-6" cx="250.19" cy="39.5" rx="4.22" ry="2.93" transform="translate(0.28 80.74) rotate(-18.34)"/><ellipse class="cls-5" cx="277.6" cy="61.35" rx="4.22" ry="2.93" transform="translate(-5.2 90.48) rotate(-18.34)"/><path class="cls-7" d="M287,196.86l29.16-1.5,13.55,21.41s25.48,4.26,23.72,34.29-31,56.39-31,56.39l1.25,15.64-2.18,6.2.28,3.48,3,3.69.31,3.82-2.62,6,3.56,5.78-75-7.26-2.74-10,4-5.37-2.24-7,3.36-6.73,1.76-21.38s-19.18-28.81,2.83-50.5l8.84-15,9.88-12.06Z"/><circle class="cls-3" cx="301.51" cy="159.92" r="30.9"/><path class="cls-2" d="M297.38,158q-4,0-8-.22l-.47,0,.06-.47a21.67,21.67,0,0,0-.65-8.81,25,25,0,0,1-6.07,8.58l-.15.13-.2,0a152.78,152.78,0,0,1-21.42-3.91l-.27-.07-.05-.27a39.74,39.74,0,0,1-.81-7.84c0-8.23,3-15.16,8.4-19.5,5.89-4.74,14.35-6.19,23.81-4.1h30.25a12.55,12.55,0,0,1,12.54,12.54v19.16l-.33.08A144.36,144.36,0,0,1,297.38,158Z"/><path class="cls-8" d="M86.51,123.67a5.43,5.43,0,0,0-3.24,7l32.63,89.55a5.44,5.44,0,0,0,7,3.24l126.66-46.16a5.43,5.43,0,0,0,3.24-7L220.14,80.76a5.45,5.45,0,0,0-7-3.25Z"/><path class="cls-9" d="M202.39,189.52l-77.53,28.25a5.86,5.86,0,0,1-7.5-3.49l-29.6-81.22a5.86,5.86,0,0,1,3.49-7.5L210.75,82a5.86,5.86,0,0,1,7.51,3.49l14.3,39.24A50.59,50.59,0,0,1,202.39,189.52Z"/><path class="cls-7" d="M146.6,130.85l-18.42,6.71a1.87,1.87,0,0,1-1.29-3.52h0l18.42-6.71a1.87,1.87,0,0,1,1.28,3.52Z"/><path class="cls-7" d="M190.52,123,130.8,144.76a1.87,1.87,0,1,1-1.28-3.52l59.72-21.77a1.87,1.87,0,0,1,1.28,3.52Z"/><path class="cls-7" d="M193.53,131.25,133.81,153a1.87,1.87,0,0,1-1.29-3.52h0l59.72-21.77a1.87,1.87,0,1,1,1.28,3.52Z"/><path class="cls-7" d="M196.54,139.51l-59.72,21.77a1.87,1.87,0,1,1-1.28-3.52L195.26,136a1.87,1.87,0,1,1,1.28,3.52Z"/><path class="cls-7" d="M199.55,147.77l-59.72,21.76a1.87,1.87,0,0,1-1.29-3.51h0l59.72-21.77a1.87,1.87,0,1,1,1.28,3.52Z"/><path class="cls-3" d="M389.05,170.71,356.35,249a13.7,13.7,0,0,1-17.73,7.39h0A13.69,13.69,0,0,1,331,238.52c.09-.22.19-.44.29-.66l36.46-80.24,20.09-49.69a11.94,11.94,0,1,1,16.89,0,11.12,11.12,0,0,1-1.62,1.36Z"/></svg>