<svg id="Layer_1" data-name="Layer 1" xmlns="http://www.w3.org/2000/svg" viewBox="0 0 506 506"><defs><style>.cls-1{fill:#f2f2f2;}.cls-2{fill:#ffb6b6;}.cls-3{fill:#2f2e41;}.cls-4{fill:#e6e6e6;}.cls-5{fill:#ccc;}.cls-6{fill:#fbd551;}.cls-7{fill:#3f3d56;}.cls-8{fill:#fff;}.cls-9{fill:#e4e4e4;}</style></defs><title>al bsmh</title><path class="cls-1" d="M36.75,186.29l-23.08-13a85.49,85.49,0,0,1,9-40.13C28,157.31,56,168.8,68.92,189.89a51.44,51.44,0,0,1,4.17,44.37L74.61,253a86.12,86.12,0,0,1-54.09-47.73,83.47,83.47,0,0,1-5.78-20.06C25.51,186.34,36.75,186.29,36.75,186.29Z"/><path class="cls-1" d="M451.68,422.8l.71-15.91a51.44,51.44,0,0,1,24-6.07c-11.52,9.42-10.08,27.56-17.89,40.22a30.91,30.91,0,0,1-22.67,14.29l-9.63,5.9a51.77,51.77,0,0,1,10.92-42,49.68,49.68,0,0,1,9.19-8.55C448.6,416.79,451.68,422.8,451.68,422.8Z"/><polygon class="cls-2" points="426.86 453.04 418.13 453.04 413.98 419.38 426.86 419.38 426.86 453.04"/><path class="cls-3" d="M429.08,461.49H401v-.35a11,11,0,0,1,10.95-10.95h0l5.14-3.9,9.59,3.9h2.45Z"/><polygon class="cls-2" points="386.32 453.04 377.6 453.04 373.45 419.38 386.32 419.38 386.32 453.04"/><path class="cls-3" d="M388.55,461.49H360.41v-.35a11,11,0,0,1,10.95-10.95h0l5.13-3.9,9.59,3.9h2.46Z"/><path class="cls-3" d="M382.55,269.05l56.75,1.42c10.77,5.86,10.94,18.53,7.41,33.57,0,0,1.19,8.94-1.2,11.33s-3.57,2.38-2.38,6.55-5.11,11-4.34,11.76,2.55,4.93,2.55,4.93l-6,34s-4.17,59-5.36,60.21-2.39,0-1.2,3,2.39,1.78,1.2,3a42,42,0,0,0-3,3.57H412.62s-1.08-6-1.08-6.55-1.2-4.18-1.2-4.77,1.06-1.65,1.06-1.65a19.59,19.59,0,0,0,.73-3.72c0-1.19,3.58-47.09,3.58-47.09l-7.15-59.61-17.29,58.42s0,51.26-1.19,52.46-1.19.59-.6,3,3,1.78,1.19,3.57-2.38-1.19-1.78,1.79l.59,3-17.88.26s-2.39-5-1.19-6.82,1.12-1.3-.34-4.22-2.05-3.53-1.45-4.12.59-3.77.59-3.77l3-57s.59-60.21.59-62a5.89,5.89,0,0,0-.49-2.68v-2.42l2.28-8.61Z"/><circle class="cls-2" cx="416.64" cy="133.42" r="17.63"/><path class="cls-4" d="M407.82,162.7c-3.8,2.26-6.07,6.41-7.38,10.63a101,101,0,0,0-4.32,24.07l-1.38,24.46-17.07,52.07c14.79,12.52,70.38,2.85,70.38,2.85s1.71-.57,0-2.28-3.37-.19-1.66-1.9.53.2,0-1.51,0-.57.57-1.14-4.4-5.69-4.4-5.69l4.55-29.89,5.68-60.29c-6.82-8.53-20.55-13.56-20.55-13.56l-3.54-6.39-17.74,1.42Z"/><path class="cls-3" d="M405.4,123.07a8.12,8.12,0,0,1,2,.27,29.74,29.74,0,0,0,4,.66,18.33,18.33,0,0,1,16.42,15.55c1-.89,3.36-2.53,5.27-1h0s0,0,.11,0c1.27-.6,3.52-8,3.59-14.54,0-3.46-.51-7.88-3.31-9.28l-.15-.08,0-.16c-.19-.78-2.28-2.11-5.92-3.14-6.6-1.88-16.44-5.55-22-.15-.42,1.81-1.79,5.7-3.17,6.14s-2.84.91-3,2.79a57.73,57.73,0,0,0,0,8,8.18,8.18,0,0,1,2.9-4.08A5.73,5.73,0,0,1,405.4,123.07Z"/><path class="cls-2" d="M372.58,220.5l28.81-18.45-14.51-19.28-14.33,17.62-44.63,2.74a8.5,8.5,0,1,0-.48,12.53Z"/><path class="cls-4" d="M428.12,176.3c1.67,10.12-29.9,29.44-29.9,29.44,0-2.37-18.84,15.55-19.69,13.58-2.42-5.59-4.12-18.85-7.5-21-1.93-1.22,11.64-12.62,11.64-12.62s7.1-7.15,16.42-16.17a21.71,21.71,0,0,1,20.13-5.89S426.45,166.19,428.12,176.3Z"/><path class="cls-2" d="M487.49,225.34l-19.06-28.41-19,14.92,17.92,13.94,3.68,44.57a8.51,8.51,0,1,0,12.55.21Z"/><path class="cls-4" d="M442.13,170.75c10.08-1.88,30.06,29.27,30.06,29.27-2.38,0,15.95,18.51,14,19.4-5.55,2.54-18.77,4.51-20.82,7.94C464.2,229.31,452.52,216,452.52,216s-7.31-6.94-16.52-16.07a21.7,21.7,0,0,1-6.31-20S432.05,172.64,442.13,170.75Z"/><path class="cls-5" d="M492.35,461.63a.84.84,0,0,1-.84.85H292.68a.85.85,0,1,1,0-1.69H491.51a.84.84,0,0,1,.84.84Z"/><path class="cls-6" d="M308.16,205.82H66.85A14.24,14.24,0,0,0,52.63,220V370.28A14.24,14.24,0,0,0,66.85,384.5H308.16a14.24,14.24,0,0,0,14.22-14.22V220A14.24,14.24,0,0,0,308.16,205.82Z"/><path class="cls-7" d="M308.16,205.82H66.85A14.24,14.24,0,0,0,52.63,220V370.28A14.24,14.24,0,0,0,66.85,384.5H308.16a14.24,14.24,0,0,0,14.22-14.22V220A14.24,14.24,0,0,0,308.16,205.82Zm4.67,107.92A58.48,58.48,0,0,1,255.35,372c-24.48.32,13.55.44-16,.44-67.53,0-137.94-.64-164.21-1.06a13.26,13.26,0,0,1-13-13.2V220.05a4.68,4.68,0,0,1,4.67-4.67h241.3a4.68,4.68,0,0,1,4.68,4.66Z"/><path class="cls-7" d="M278.45,119.31H94.6a7.91,7.91,0,0,0-7.43,5.24L58.78,204.21a7.87,7.87,0,0,0,7.42,10.53l246.57.44h0a7.88,7.88,0,0,0,7.25-11l-.43.18.43-.18-34.33-80.1A7.88,7.88,0,0,0,278.45,119.31Z"/><path class="cls-7" d="M320.67,205.92A7.94,7.94,0,0,1,320,209L285.7,270.69a7.9,7.9,0,0,1-7.25,4.77H94.6a7.91,7.91,0,0,1-7.43-5.24L58.78,209a7.9,7.9,0,0,1,4.77-10.08h0a7.91,7.91,0,0,1,2.63-.46l30.12-.06,12.3,0,161.76-.28,12.3,0,30.1-.06h0A7.89,7.89,0,0,1,320.67,205.92Z"/><path class="cls-7" d="M84.94,318.52c3.65,0,53.71,3.06,53.71,6.7s-50.06,6.5-53.71,6.5a6.6,6.6,0,1,1,0-13.2Z"/><path class="cls-4" d="M267,70.85H112A15.69,15.69,0,0,0,96.31,86.52V275.46H278.45a7.78,7.78,0,0,0,4.22-1.23V86.52A15.69,15.69,0,0,0,267,70.85Z"/><path class="cls-8" d="M207.84,83.55h-85a14.28,14.28,0,0,0-14.27,14.27V275.46H270.37V146.09A62.61,62.61,0,0,0,207.84,83.55Z"/><path class="cls-9" d="M242.81,259.68H136.17a3.48,3.48,0,0,0,0,7H242.81a3.48,3.48,0,0,0,0-7Z"/><path class="cls-9" d="M242.81,245.94H136.17a3.48,3.48,0,1,0,0,6.95H242.81a3.48,3.48,0,1,0,0-6.95Z"/><path class="cls-9" d="M182.4,232.19H136.17a3.48,3.48,0,0,0,0,7H182.4a3.48,3.48,0,0,0,0-7Z"/><path class="cls-9" d="M242.81,203.41H136.17a3.48,3.48,0,1,0,0,7H242.81a3.48,3.48,0,1,0,0-7Z"/><path class="cls-9" d="M242.81,189.67H136.17a3.48,3.48,0,1,0,0,7H242.81a3.48,3.48,0,1,0,0-7Z"/><path class="cls-9" d="M182.4,175.92H136.17a3.48,3.48,0,1,0,0,7H182.4a3.48,3.48,0,0,0,0-7Z"/><path class="cls-6" d="M242.81,147.13H136.17a3.48,3.48,0,1,0,0,7H242.81a3.48,3.48,0,1,0,0-7Z"/><path class="cls-6" d="M242.81,133.39H136.17a3.48,3.48,0,0,0,0,7H242.81a3.48,3.48,0,1,0,0-7Z"/><path class="cls-6" d="M182.4,119.64H136.17a3.48,3.48,0,1,0,0,7H182.4a3.48,3.48,0,1,0,0-7Z"/><circle class="cls-6" cx="276.86" cy="70.59" r="27.07"/><path class="cls-8" d="M273.17,84.68a3,3,0,0,1-2.41-1.2l-7.38-9.85a3,3,0,1,1,4.8-3.63v0L273,76.46l12.41-18.62a3,3,0,0,1,5,3.34L275.68,83.34a3,3,0,0,1-2.43,1.34Z"/></svg>