<svg id="Layer_1" data-name="Layer 1" xmlns="http://www.w3.org/2000/svg" viewBox="0 0 506 506"><defs><style>.cls-1{fill:#f2f2f2;}.cls-2{fill:#a0616a;}.cls-3{fill:#fbd551;}.cls-4{fill:#fff;}.cls-5{fill:#2f2e41;}.cls-6{fill:#ccc;}</style></defs><title>al bsmh</title><path class="cls-1" d="M316.08,130H291.73V337.6a24.81,24.81,0,0,1-24.81,24.81H80.73v.23a24.81,24.81,0,0,0,24.81,24.81H316.08a24.81,24.81,0,0,0,24.81-24.81h0V154.78A24.8,24.8,0,0,0,316.08,130Z"/><path class="cls-1" d="M431.53,459.92a2.1,2.1,0,0,0,1.52-3.65l-.14-.57.06-.14a5.65,5.65,0,0,1,10.42,0c1.71,4.11,3.88,8.22,4.41,12.57a16.6,16.6,0,0,1-.29,5.75,67,67,0,0,0,6.1-27.85,64.57,64.57,0,0,0-.4-7.22q-.33-2.94-.92-5.85a67.87,67.87,0,0,0-13.45-28.74,18.1,18.1,0,0,1-7.51-7.79,13.64,13.64,0,0,1-1.25-3.76c.36,0,1.38-5.52,1.1-5.86.51-.77,1.42-1.16,2-1.91,2.76-3.75,6.57-3.1,8.56,2,4.25,2.14,4.29,5.7,1.69,9.12-1.66,2.18-1.89,5.12-3.35,7.45.15.2.31.38.46.57a67.91,67.91,0,0,1,7.12,11.29,28.46,28.46,0,0,1,1.7-13.18c1.62-3.91,4.66-7.21,7.34-10.59a5.82,5.82,0,0,1,10.37,2.86v.15c-.39.23-.78.46-1.16.72a2.85,2.85,0,0,0,1.15,5.19h.06a30.75,30.75,0,0,1-.75,4.25c3.43,13.28-4,18.11-14.57,18.33l-.69.35a69.72,69.72,0,0,1,3.75,17.65,66.69,66.69,0,0,1-.05,10.67l0-.12a17.5,17.5,0,0,1,6-10.09c4.59-3.76,11.07-5.15,16-8.18a3.29,3.29,0,0,1,5,3.19l0,.13a18.52,18.52,0,0,0-2.15,1c-.4.22-.79.46-1.17.71a2.86,2.86,0,0,0,1.15,5.2h.06l.12,0a28.43,28.43,0,0,1-5.23,8.19c-2.15,11.59-11.37,12.69-21.23,9.32h0a69.52,69.52,0,0,1-4.68,13.66H432c-.06-.19-.12-.38-.17-.57a18.8,18.8,0,0,0,4.62-.27l-3.72-4.58-.07-.09-1.9-2.33h0a27.77,27.77,0,0,1,.82-7.09Z"/><path class="cls-2" d="M247.43,101.73A7.65,7.65,0,0,0,258,103.9a7,7,0,0,0,1-.75l34.75,15.68,6.7-8.55L259,92a7.64,7.64,0,0,0-11.61,9.77Z"/><path class="cls-3" d="M396.57,111.51,400,131a6.63,6.63,0,0,1-5.38,7.69c-.21,0-.42.06-.63.08l-58.57,4.61L266.6,112.61,274.82,97l59.76,18.92Z"/><rect class="cls-1" x="24.16" y="97.51" width="260.15" height="257.47" rx="24.81"/><path class="cls-4" d="M49,102.61a19.71,19.71,0,0,0-19.7,19.71h0V330.18A19.71,19.71,0,0,0,49,349.89H183.33A95.88,95.88,0,0,0,279.21,254h0V122.32a19.71,19.71,0,0,0-19.71-19.71H49Z"/><path class="cls-1" d="M213.09,165.7H94.92a4.09,4.09,0,0,1,0-8.18H213.09a4.09,4.09,0,0,1,0,8.18Z"/><path class="cls-1" d="M213.09,252.88H94.92a4.09,4.09,0,1,1,0-8.17H213.09a4.09,4.09,0,1,1,0,8.17Z"/><path class="cls-1" d="M261.08,209.32H46.93a4.09,4.09,0,1,1,0-8.18H261.08a4.09,4.09,0,1,1,0,8.18Z"/><polygon class="cls-2" points="389.17 197.59 367.83 243.04 449.9 234.73 432.77 191.1 389.17 197.59"/><polygon class="cls-2" points="408.25 458.81 400.46 458.75 397.02 428.04 408.5 428.13 408.25 458.81"/><path class="cls-5" d="M383.32,471.19a3.49,3.49,0,0,0,3.45,3.51l15.47.13,2.71-5.49,1,5.51,5.84.06-1.47-19.68-2-.14-8.29-.57-2.67-.18-.05,5.57-12.42,8.43A3.46,3.46,0,0,0,383.32,471.19Z"/><polygon class="cls-2" points="322.14 458.85 314.72 456.5 320.45 426.13 331.4 429.6 322.14 458.85"/><path class="cls-5" d="M294.68,463.35a3.49,3.49,0,0,0,2.27,4.37l14.75,4.67,4.2-4.45-.67,5.56,5.56,1.77L325.16,456l-1.9-.73-7.75-3-2.5-1-1.68,5.31L297,461.08A3.47,3.47,0,0,0,294.68,463.35Z"/><path class="cls-5" d="M446.16,222l-74.62,13.67s-12,8.95-8.76,12.16,3.7,2.71,1.59,4.81-6.65,4.92-6.69,6.76-33.44,84.39-33.44,84.39,3.71-1.86.93.93-2.79,5.08-2.79,5.08l-13,87.67,21.09,1.24,20.65-79.93,46.06-74.67s4.57,66.59,4.76,71,3-1.14.19,4.43-4.64,1.85-2.78,5.56-6.68,79.24-6.68,79.24h19.25l41.28-156.55S467.91,243,446.16,222Z"/><path class="cls-3" d="M424.18,96.72l-29.89-3.1-7.74,10-9,4.8a22.54,22.54,0,0,0-11.88,21.3l10.54,61.33s-8.9,20.05-2.78,25-4.73,17.35,8.35,11.13,69.56.93,69.56.93l-12.06-34.32,9-33.72,1-28.28a24,24,0,0,0-17-23.77l-1.26-.38Z"/><path class="cls-5" d="M465.33,73.81c.19,8.42-2.95,16.58-7.48,23.74a44.77,44.77,0,0,0-6.28-11.61,36.13,36.13,0,0,1-3.85,22.9c-.13.1-.27.18-.41.27-3.68,2.21-8.36,3.11-12.35,1.51,8.24-8.88,9.29-23.6,2.38-33.56-1.95-2.83-4.48-5.33-5.69-8.55-1.92-5.13-.08-10.78,1.08-16.14,1.09-5,1.28-10.9-2.07-14.56a3.54,3.54,0,0,1,3.22-1.48c2.06.29,3.56,2.09,4.52,3.93s1.58,3.89,2.92,5.48c2.46,3,6.66,3.69,10.2,5.26C460.08,54.82,465.12,64.43,465.33,73.81Z"/><path class="cls-6" d="M244.58,474.9a1.1,1.1,0,0,0,1.1,1.1H480.62a1.11,1.11,0,0,0,0-2.21H245.69a1.11,1.11,0,0,0-1.11,1.1Z"/><circle class="cls-3" cx="467.18" cy="260.72" r="8.35"/><path class="cls-5" d="M393.21,69c.49-1.71-2.89,8.76-1.26,9,7.42.85,17.6,5.28,22.76,7.35l.7-.09c.55-.06,1.09-.15,1.62-.25,12-2.28,16.66-20.75,16.66-20.92,0-.83-2-23.65-5.14-24a22.76,22.76,0,0,0-2.48-.14h-7.79a36.84,36.84,0,0,0-4.9-.71h0c-15.69-1.19-28.06,8.37-26.9,20,0,0,0,0,0,0,.34.49.63,1,.89,1.42a12.29,12.29,0,0,1,.65,1.22c1.43,3-2.24,6.71.2,7.4,3.24.93-8.53,31.44,4.3,31.44C386.29,102.51,391.86,73.72,393.21,69Z"/><circle class="cls-2" cx="407.21" cy="68.44" r="18.45"/><path class="cls-5" d="M386.47,60.21l.91.46,1,.45c6.18,2.81,11.21,3.12,14.26-.91a17.07,17.07,0,0,1,1.4-6.14,9.83,9.83,0,0,0,1.63,6.14h6.14c6.33,4.2,9.58,4.64,5.19,18.43-1.22,3.84-6.09,26.2-4.18,29.52.56-.06,6.45-24.55,7-24.65,12-2.28,19.67-22.1,18.69-23.22a20.77,20.77,0,0,0-2.14-9.19,21.18,21.18,0,0,0-8-8.74A37.81,37.81,0,0,0,421.88,40l-.16,0c-.68-.18-1.37-.35-2.06-.49a39.34,39.34,0,0,0-4.33-.66H415a3.3,3.3,0,0,0-1.65.45h0a3.11,3.11,0,0,0-.92.81,3.23,3.23,0,0,0-.67,2h-6.84c-.25,0-.51,0-.76,0a18.35,18.35,0,0,0-17.69,17.25C386.47,59.57,386.47,59.89,386.47,60.21Z"/><circle class="cls-5" cx="426.81" cy="42.16" r="12.16"/><path class="cls-2" d="M467.27,264.16a7.64,7.64,0,0,0-2.36-10.55,7.53,7.53,0,0,0-1.09-.57l.06-38.13-10.54-2.61.26,45.28a7.64,7.64,0,0,0,13.67,6.58Z"/><path class="cls-3" d="M415.07,124.12,431.48,113a6.64,6.64,0,0,1,9.22,1.75,6.16,6.16,0,0,1,.33.55l28.2,51.53.11,75.42-17.61-1.11-7.23-62.26Z"/><path class="cls-4" d="M289.1,295.16H113.8a14.38,14.38,0,1,0,0,28.75H289.1a14.38,14.38,0,1,0,0-28.75Z"/><path class="cls-3" d="M289.1,324.84H113.8a15.31,15.31,0,1,1,0-30.61H289.1a15.31,15.31,0,0,1,0,30.61ZM113.8,296.09a13.45,13.45,0,1,0,0,26.9H289.1a13.45,13.45,0,0,0,0-26.9Z"/><path class="cls-3" d="M299.44,357.9H222.07a4.09,4.09,0,0,1,0-8.18h77.37a4.09,4.09,0,0,1,0,8.18Z"/><path class="cls-3" d="M66.06,136.94l-.06-.86a7.65,7.65,0,0,1,2.06-5.78c1.51-1.77,2.34-3.07,2.34-4.57,0-1.71-1.07-2.84-3.17-2.88a6,6,0,0,0-3.37,1l-.8-2.1a8.74,8.74,0,0,1,4.77-1.34c3.84,0,5.58,2.37,5.58,4.91,0,2.27-1.27,3.91-2.87,5.81a6.59,6.59,0,0,0-1.91,4.91l0,.86Zm-.73,4.68a2,2,0,0,1,2-2.1,2.09,2.09,0,1,1-2,2.1Z"/><path class="cls-3" d="M467.66,58.16l-.1-1.32c-.31-2.75.61-5.76,3.15-8.81,2.29-2.7,3.56-4.68,3.56-7,0-2.6-1.62-4.33-4.83-4.38a9,9,0,0,0-5.14,1.58l-1.22-3.21a13.35,13.35,0,0,1,7.27-2c5.86,0,8.5,3.61,8.5,7.48,0,3.46-1.93,6-4.37,8.85-2.24,2.65-3.06,4.89-2.9,7.49l.05,1.32Zm-1.12,7.12a3,3,0,0,1,3-3.2,3.18,3.18,0,1,1-3,3.2Z"/></svg>