<svg id="Layer_1" data-name="Layer 1" xmlns="http://www.w3.org/2000/svg" viewBox="0 0 506 506"><defs><style>.cls-1{fill:#f2f2f2;}.cls-2{fill:#2f2e41;}.cls-10,.cls-3,.cls-9{fill:#fbd551;}.cls-4{fill:#a8a8a8;}.cls-5{opacity:0.2;}.cls-10,.cls-5,.cls-7,.cls-9{isolation:isolate;}.cls-6{fill:#3f3d56;}.cls-7{opacity:0.1;}.cls-8{fill:none;stroke:#2f2e41;stroke-miterlimit:10;stroke-width:2px;}.cls-9{opacity:0.4;}.cls-10{opacity:0.8;}.cls-11{fill:#fff;}</style></defs><title>al bsmh</title><circle class="cls-1" cx="138.63" cy="221.85" r="90.92"/><path class="cls-2" d="M13.73,152.77c0,33.08,20.76,59.84,46.4,59.84"/><path class="cls-3" d="M60.13,212.61c0-33.45,23.16-60.52,51.78-60.52"/><path class="cls-3" d="M30.54,155.77c0,31.42,13.24,56.84,29.59,56.84"/><path class="cls-2" d="M60.13,212.61c0-42.74,26.77-77.33,59.85-77.33"/><path class="cls-4" d="M50.37,213s6.58-.21,8.56-1.62,10.12-3.1,10.62-.83,9.89,11.26,2.46,11.32-17.26-1.16-19.24-2.36S50.37,213,50.37,213Z"/><path class="cls-5" d="M72.14,221.12c-7.43.06-17.26-1.15-19.24-2.36-1.51-.92-2.11-4.21-2.31-5.73h-.22s.42,5.3,2.4,6.51S64.58,222,72,221.91c2.14,0,2.88-.78,2.84-1.91C74.55,220.68,73.74,221.11,72.14,221.12Z"/><ellipse class="cls-6" cx="98.51" cy="312.13" rx="79.82" ry="10.86"/><ellipse class="cls-7" cx="98.51" cy="312.13" rx="67.01" ry="9.12"/><ellipse class="cls-6" cx="370.83" cy="412.87" rx="120.8" ry="16.43"/><ellipse class="cls-6" cx="146.31" cy="406.46" rx="72.56" ry="9.87"/><path class="cls-8" d="M211.19,398.14c38.42,9.82,112.26-12.81,120.37-38.42"/><path class="cls-8" d="M145.89,241.49s55.49-15.37,58.9,34.15-45.67,63.6-7.26,73.41"/><path class="cls-8" d="M92.28,360.27S109,355.65,110,370.53s-13.73,19.12-2.18,22.07"/><path class="cls-2" d="M346.12,371.35l-3.37,21.47s-16.55,8.79-4.91,9.05,66.47,0,66.47,0,10.61,0-6.21-9.31l-3.36-22.5Z"/><path class="cls-7" d="M335.5,401.64a45.74,45.74,0,0,1,7.25-4.8l3.37-21.47,48.62,0,3.36,21.17a43.9,43.9,0,0,1,7.77,5.11c2.16-.49,4.52-2.32-7.77-9.13l-3.36-22.5-48.62,1.29-3.37,21.47S328.84,400.21,335.5,401.64Z"/><rect class="cls-2" x="260.63" y="221.72" width="219.08" height="152.6" rx="7.7"/><rect class="cls-6" x="268" y="229.87" width="204.33" height="114.32"/><circle class="cls-1" cx="370.17" cy="226.25" r="1.29"/><path class="cls-2" d="M479.71,353.25v13.37a7.71,7.71,0,0,1-7.7,7.71H268.33a7.71,7.71,0,0,1-7.7-7.71h0V353.25Z"/><polygon class="cls-2" points="427.33 415.84 427.33 418.43 288.18 418.43 288.18 416.36 288.37 415.84 291.8 406.53 424.49 406.53 427.33 415.84"/><path class="cls-2" d="M480.88,413.31c-.25,1.08-1.21,2.22-3.37,3.3-7.76,3.88-23.54-1-23.54-1s-12.15-2.07-12.15-7.5a8.7,8.7,0,0,1,1.06-.63c3.26-1.73,14.08-6,33.26.18a8,8,0,0,1,3.65,2.38A3.84,3.84,0,0,1,480.88,413.31Z"/><path class="cls-7" d="M480.88,413.31c-9.49,3.64-18,3.91-26.65-2.13a19,19,0,0,0-11.35-3.73c3.26-1.73,14.08-6,33.26.18a8,8,0,0,1,3.65,2.38A3.84,3.84,0,0,1,480.88,413.31Z"/><ellipse class="cls-1" cx="468.97" cy="410.15" rx="3.36" ry="1.03"/><circle class="cls-1" cx="370.17" cy="363.85" r="4.91"/><polygon class="cls-7" points="427.33 415.84 427.33 418.43 288.18 418.43 288.18 416.36 288.37 415.84 427.33 415.84"/><rect class="cls-2" x="60.09" y="198.81" width="88.78" height="103.3"/><rect class="cls-6" x="51.13" y="188.56" width="106.71" height="36.71"/><rect class="cls-6" x="51.13" y="232.1" width="106.71" height="36.71"/><rect class="cls-6" x="51.13" y="275.64" width="106.71" height="36.71"/><rect class="cls-9" x="129.67" y="194.96" width="6.83" height="6.83"/><rect class="cls-10" x="139.48" y="194.96" width="6.83" height="6.83"/><rect class="cls-3" x="149.3" y="194.96" width="6.83" height="6.83"/><rect class="cls-9" x="129.67" y="238.07" width="6.83" height="6.83"/><rect class="cls-10" x="139.48" y="238.07" width="6.83" height="6.83"/><rect class="cls-3" x="149.3" y="238.07" width="6.83" height="6.83"/><rect class="cls-9" x="129.67" y="281.19" width="6.83" height="6.83"/><rect class="cls-10" x="139.48" y="281.19" width="6.83" height="6.83"/><rect class="cls-3" x="149.3" y="281.19" width="6.83" height="6.83"/><circle class="cls-2" cx="148.87" cy="360.58" r="33.72"/><rect class="cls-2" x="133.51" y="387.04" width="10.24" height="18.35"/><rect class="cls-2" x="154" y="387.04" width="10.24" height="18.35"/><ellipse class="cls-2" cx="142.05" cy="405.61" rx="8.54" ry="3.2"/><ellipse class="cls-2" cx="162.53" cy="405.18" rx="8.54" ry="3.2"/><circle class="cls-11" cx="149.73" cy="352.04" r="11.52"/><circle class="cls-6" cx="149.73" cy="352.04" r="3.84"/><path class="cls-3" d="M116.16,329.22c-2.72-12.2,6-24.52,19.44-27.52s26.58,4.44,29.3,16.64S158.71,335,145.25,338,118.89,341.41,116.16,329.22Z"/><ellipse class="cls-2" cx="178.42" cy="348.99" rx="16.86" ry="5.29" transform="translate(-122.93 98.36) rotate(-23.17)"/><ellipse class="cls-2" cx="115.25" cy="371.61" rx="16.86" ry="5.29" transform="matrix(0.92, -0.39, 0.39, 0.92, -136.92, 75.32)"/><path class="cls-11" d="M168.51,370.39c0,3.31-8.5,9.82-17.93,9.82s-18.35-6.09-18.35-9.39,8.92-2.56,18.35-2.56S168.51,367.09,168.51,370.39Z"/></svg>