<svg id="Layer_1" data-name="Layer 1" xmlns="http://www.w3.org/2000/svg" viewBox="0 0 506 506"><defs><style>.cls-1{fill:#e6e6e6;}.cls-2{fill:#3f3d56;}.cls-3{opacity:0.2;isolation:isolate;}.cls-4{fill:#ff6584;}.cls-5{fill:#fbd551;}</style></defs><title>al bsmh</title><ellipse class="cls-1" cx="253" cy="347.07" rx="248.2" ry="6.94"/><path class="cls-2" d="M385.27,271.84h-1.89c-16.61-.38-28.65-10.76-25.59-21.65l7.48-26.57,1.88-6.72,33.49.57,2,6.57,8,25.89C414.08,260.88,402,271.46,385.27,271.84Z"/><path class="cls-3" d="M402.68,224a37,37,0,0,1-37.41-.42l1.88-6.72,33.49.57Z"/><path class="cls-2" d="M401.26,251.07c1.45-5.39,6.2-13.17,19.54-22.54,23.25-16.36,9.38-28.62,8.78-29.14-1.26-1.08-1.08-2.29.43-2.7a6.27,6.27,0,0,1,5,1.17c.76.63,18.13,15.46-8.11,33.91-23.62,16.61-18.6,27.46-18.54,27.56.63,1.16-.38,2.09-2.27,2.08s-3.93-1-4.56-2.12C401.43,259,399.92,256.09,401.26,251.07Z"/><path class="cls-2" d="M368.87,275.71a3.86,3.86,0,0,1-3.86-3.86h0V255.1a3.87,3.87,0,0,1,7.73,0v16.75a3.86,3.86,0,0,1-3.87,3.86Z"/><path class="cls-2" d="M372.26,236a3.87,3.87,0,0,1-5.13,1.9h0l-15.21-7a3.86,3.86,0,0,1,3.23-7l15.21,7a3.86,3.86,0,0,1,1.9,5.12Z"/><path class="cls-2" d="M396.39,236a3.87,3.87,0,0,0,5.13,1.9h0l15.21-7a3.86,3.86,0,0,0-3.23-7l-15.21,7a3.86,3.86,0,0,0-1.9,5.12Z"/><path class="cls-2" d="M399.78,275.71a3.86,3.86,0,0,0,3.87-3.86h0V255.1a3.87,3.87,0,0,0-7.73,0h0v16.75a3.86,3.86,0,0,0,3.86,3.86Z"/><path class="cls-2" d="M415.93,167.32a3.81,3.81,0,0,0,.77-3l-2.11-12.37-2.1-12.38a3.87,3.87,0,0,0-6.27-2.32l-9.66,8-5.82,4.82a36.76,36.76,0,0,0-11.75-.18l-5.61-4.64-9.66-8a3.87,3.87,0,0,0-5.44.51,4,4,0,0,0-.83,1.81l-2.1,12.38-2.1,12.37a3.77,3.77,0,0,0,.16,1.94,36.91,36.91,0,1,0,62.52,1.08Z"/><path class="cls-1" d="M362.75,142.3a1.92,1.92,0,0,0-1.89,1.59l-2.55,15a1.91,1.91,0,0,0,1.56,2.21,2.07,2.07,0,0,0,1-.09l14.27-5.3a1.89,1.89,0,0,0,1.12-2.45,1.79,1.79,0,0,0-.57-.81h0L364,142.74A1.91,1.91,0,0,0,362.75,142.3Z"/><path class="cls-1" d="M407.19,142.3a1.91,1.91,0,0,0-1.21.44l-11.72,9.71a1.92,1.92,0,0,0-.25,2.69,1.79,1.79,0,0,0,.81.57l14.26,5.3a1.92,1.92,0,0,0,2.46-1.13,1.85,1.85,0,0,0,.09-1l-2.55-15a1.92,1.92,0,0,0-1.89-1.59Z"/><circle class="cls-1" cx="384.33" cy="191.57" r="5.15"/><ellipse class="cls-2" cx="384.33" cy="188.99" rx="3.43" ry="1.29"/><path class="cls-4" d="M381.75,194.57h4.72v5.8a2.36,2.36,0,0,1-2.36,2.36h0a2.36,2.36,0,0,1-2.36-2.36v-5.8Z"/><path class="cls-2" d="M384.61,136.14c-.24.51-.48,1-.71,1.56a36.84,36.84,0,0,0-2.6,19.73l1.51-2.17A36.74,36.74,0,0,1,384.61,136.14Z"/><path class="cls-2" d="M388.48,140.86q-.37.76-.72,1.56a36.73,36.73,0,0,0-2.59,19.73l1.5-2.17A36.75,36.75,0,0,1,388.48,140.86Z"/><path class="cls-5" d="M400.39,233.57l-.54-6.92-.55-6.92a2.14,2.14,0,0,0-2.3-2,2.18,2.18,0,0,0-1,.37l-5.72,3.93-4.18,2.88a2.84,2.84,0,0,0-4-.32,3.22,3.22,0,0,0-.32.32l-4.17-2.88-5.73-3.93a2.14,2.14,0,0,0-3,.55,2.18,2.18,0,0,0-.37,1l-.54,6.92-.54,6.92a2.13,2.13,0,0,0,2,2.3,2,2,0,0,0,1.08-.21l6.27-3,5.15-2.46a2.85,2.85,0,0,0,4,0l0,0,5.14,2.46,6.27,3a2.14,2.14,0,0,0,2.85-1A2.16,2.16,0,0,0,400.39,233.57Z"/><circle class="cls-1" cx="377.46" cy="185.99" r="1.29"/><circle class="cls-1" cx="391.2" cy="185.99" r="1.29"/><path class="cls-2" d="M135.13,260.46H137c16.61-.38,28.66-10.76,25.59-21.65l-7.47-26.57-1.89-6.72-33.49.57-2,6.58-8,25.88C106.32,249.5,118.37,260.08,135.13,260.46Z"/><path class="cls-3" d="M117.73,212.67a37,37,0,0,0,37.41-.43l-1.89-6.72-33.49.57Z"/><path class="cls-2" d="M115.07,236.54c-3.61-4.25-11.24-9.25-27.3-12-28-4.83-20.73-21.85-20.4-22.57.68-1.51,0-2.53-1.55-2.26a6.32,6.32,0,0,0-4.06,3.22c-.41.89-9.76,21.73,21.85,27.18,28.45,4.91,28.55,16.85,28.54,17-.07,1.32,1.24,1.73,2.94.91s3.14-2.55,3.22-3.87C118.33,243.82,118.44,240.5,115.07,236.54Z"/><path class="cls-2" d="M151.53,264.33a3.86,3.86,0,0,0,3.86-3.86h0V243.73a3.86,3.86,0,1,0-7.72,0v16.74a3.86,3.86,0,0,0,3.86,3.86Z"/><path class="cls-2" d="M148.14,224.58a3.87,3.87,0,0,0,5.13,1.9h0l15.21-7a3.86,3.86,0,0,0-3.22-7h0l-15.21,7a3.86,3.86,0,0,0-1.9,5.12Z"/><path class="cls-2" d="M124,224.58a3.87,3.87,0,0,1-5.13,1.9h0l-15.21-7a3.86,3.86,0,0,1,3.22-7h0l15.21,7a3.86,3.86,0,0,1,1.9,5.12Z"/><path class="cls-2" d="M120.62,264.33a3.86,3.86,0,0,1-3.86-3.86h0V243.73a3.86,3.86,0,1,1,7.72,0v16.74a3.86,3.86,0,0,1-3.86,3.86Z"/><path class="cls-2" d="M167,154.86a3.88,3.88,0,0,0,.17-1.94l-2.11-12.37L163,128.18a3.87,3.87,0,0,0-6.27-2.33l-9.66,8-5.61,4.64a36.76,36.76,0,0,0-11.75.18l-5.82-4.82-9.66-8a3.86,3.86,0,0,0-6.27,2.33l-2.1,12.37-2.1,12.37a3.81,3.81,0,0,0,.76,3A36.93,36.93,0,1,0,167,154.86Z"/><path class="cls-1" d="M156.44,131.36l-11.72,9.71h0a1.92,1.92,0,0,0-.25,2.69,1.89,1.89,0,0,0,.81.58l14.26,5.29A1.92,1.92,0,0,0,162,148.5a1.82,1.82,0,0,0,.09-1l-2.55-15a1.91,1.91,0,0,0-3.1-1.15Z"/><path class="cls-1" d="M112.54,131a1.91,1.91,0,0,0-1.22,1.47l-2.55,15a1.9,1.9,0,0,0,1.56,2.2,2,2,0,0,0,1-.09l14.27-5.29a1.91,1.91,0,0,0,1.12-2.46,1.85,1.85,0,0,0-.57-.81l-11.72-9.71a1.91,1.91,0,0,0-1.21-.44A1.89,1.89,0,0,0,112.54,131Z"/><circle class="cls-1" cx="136.07" cy="180.19" r="5.15"/><ellipse class="cls-2" cx="136.07" cy="177.61" rx="3.43" ry="1.29"/><path class="cls-4" d="M136.29,191.35h0a2.36,2.36,0,0,1-2.36-2.36h0v-5.8h4.72V189a2.36,2.36,0,0,1-2.36,2.36Z"/><path class="cls-2" d="M135.79,124.76c.25.51.49,1,.71,1.56a36.64,36.64,0,0,1,2.6,19.73c-.48-.7-1-1.43-1.51-2.17A36.64,36.64,0,0,0,135.79,124.76Z"/><path class="cls-2" d="M131.92,129.48q.38.77.72,1.56a36.87,36.87,0,0,1,2.6,19.74l-1.51-2.17A36.77,36.77,0,0,0,131.92,129.48Z"/><path class="cls-5" d="M120,147.06l.55-6.92.54-6.92a2.13,2.13,0,0,1,2.3-2,2.06,2.06,0,0,1,1,.36l5.72,3.94,4.18,2.87a2.84,2.84,0,0,1,4-.32c.11.1.22.21.32.32l4.18-2.87,5.72-3.94a2.14,2.14,0,0,1,3,.56,2.1,2.1,0,0,1,.37,1l.54,6.92.55,6.92a2.14,2.14,0,0,1-3.05,2.1l-6.27-3-5.15-2.46a2.85,2.85,0,0,1-4,0l0,0-5.15,2.46-6.27,3a2.14,2.14,0,0,1-3-2.1Z"/><path class="cls-1" d="M141.66,174.61c0,.71.57,0,1.28,0s1.29.71,1.29,0a1.29,1.29,0,1,0-2.57,0Z"/><path class="cls-1" d="M130.49,174.61c0,.71-.57,0-1.28,0s-1.29.71-1.29,0a1.29,1.29,0,1,1,2.57,0Z"/><polygon class="cls-2" points="273.39 271.85 273.39 263.66 232.45 263.66 232.45 264.18 232.45 271.85 232.45 337.86 232.45 346.04 240.64 346.04 273.39 346.04 273.39 337.86 240.64 337.86 240.64 271.85 273.39 271.85"/><path class="cls-5" d="M293.34,263.66V346h40.93V263.66Zm32.75,74.19H301.53v-66h24.56Z"/><polygon class="cls-5" points="179.75 337.86 179.75 264.18 171.56 264.18 171.56 337.86 171.56 346.04 179.75 346.04 212.5 346.04 212.5 337.86 179.75 337.86"/><polygon class="cls-2" points="153.14 271.85 153.14 263.66 112.21 263.66 112.21 264.18 112.21 271.85 112.21 300.5 112.21 308.69 112.21 337.86 112.21 346.04 120.4 346.04 153.14 346.04 153.14 337.86 120.4 337.86 120.4 308.69 153.14 308.69 153.14 300.5 120.4 300.5 120.4 271.85 153.14 271.85"/><polygon class="cls-5" points="473.45 271.85 473.45 263.66 432.51 263.66 432.51 264.18 432.51 271.85 432.51 300.5 432.51 308.69 432.51 337.86 432.51 346.04 440.7 346.04 473.45 346.04 473.45 337.86 440.7 337.86 440.7 308.69 473.45 308.69 473.45 300.5 440.7 300.5 440.7 271.85 473.45 271.85"/><polygon class="cls-2" points="84.58 264.18 84.58 331.84 63 310.25 62.95 310.3 62.9 310.25 40.83 332.32 40.83 263.92 32.65 263.92 32.65 345.79 40.83 345.79 40.83 343.9 62.95 321.78 84.58 343.41 84.58 346.04 92.77 346.04 92.77 264.18 84.58 264.18"/><polygon class="cls-2" points="405.4 264.18 405.4 266.06 383.28 288.18 361.65 266.55 361.65 263.92 353.46 263.92 353.46 345.79 361.65 345.79 361.65 278.12 383.23 299.71 383.28 299.66 383.33 299.7 405.4 277.64 405.4 346.04 413.58 346.04 413.58 264.18 405.4 264.18"/><circle class="cls-5" cx="191.88" cy="208.72" r="5.02"/><circle class="cls-5" cx="67.94" cy="264.55" r="5.02"/><circle class="cls-5" cx="167.32" cy="376.22" r="5.02"/><circle class="cls-5" cx="293.5" cy="223.79" r="5.02"/><circle class="cls-5" cx="441.46" cy="371.75" r="5.02"/><circle class="cls-5" cx="446.48" cy="239.99" r="5.02"/><circle class="cls-5" cx="382.83" cy="330.43" r="5.02"/></svg>