<svg id="Layer_1" data-name="Layer 1" xmlns="http://www.w3.org/2000/svg" viewBox="0 0 506 506"><defs><style>.cls-1{fill:#fbd551;}.cls-2{fill:#2f2e41;}.cls-3{fill:#3f3d56;}.cls-4{fill:#fff;}.cls-5{fill:#ff6584;}.cls-6{fill:#e6e6e6;}.cls-7{fill:#ccc;}.cls-8{fill:#b3b3b3;}</style></defs><title>al bsmh</title><circle class="cls-1" cx="249.35" cy="223.35" r="42.69"/><path class="cls-1" d="M145.53,327.23a5.6,5.6,0,0,1-3.17-4.75l-.62-11.75a5.58,5.58,0,0,1,5.28-5.87l98-5.18a5.59,5.59,0,0,1,5.87,5.28l.63,11.76a5.6,5.6,0,0,1-5.29,5.87l-98,5.18A5.59,5.59,0,0,1,145.53,327.23Z"/><path class="cls-2" d="M213.07,327.46a5.63,5.63,0,0,1-3.16-5.08l-.12-22.14a5.59,5.59,0,0,1,5.63-5.54h0l44.7,3.94c1.19,0,2.68,1.84,3.88,3.31.38.47.7.86.94,1.11l.3.32h0a5.62,5.62,0,0,1,1.3,3.64l-.1,11.77a5.58,5.58,0,0,1-5.63,5.54L215.48,328A5.74,5.74,0,0,1,213.07,327.46Z"/><path class="cls-1" d="M241,494.42H229.26a5.59,5.59,0,0,1-5.59-5.58V389.13a5.6,5.6,0,0,1,5.59-5.59H241a5.58,5.58,0,0,1,5.58,5.59v99.71A5.58,5.58,0,0,1,241,494.42Z"/><path class="cls-1" d="M272.08,494.42H260.31a5.6,5.6,0,0,1-5.59-5.58V389.13a5.61,5.61,0,0,1,5.59-5.59h11.77a5.58,5.58,0,0,1,5.58,5.59v99.71A5.58,5.58,0,0,1,272.08,494.42Z"/><path class="cls-2" d="M255,239.17l.05-1.59c-3-.08-5.59-.27-7.55-1.71a4.87,4.87,0,0,1-1.9-3.61,2.81,2.81,0,0,1,.92-2.31c1.3-1.1,3.4-.74,4.93,0l1.32.6L250.27,212l-1.58.21L250.84,228a5.61,5.61,0,0,0-5.32.76,4.39,4.39,0,0,0-1.49,3.59,6.49,6.49,0,0,0,2.56,4.84C249.11,239,252.39,239.1,255,239.17Z"/><rect class="cls-2" x="232.28" y="213.59" width="8.59" height="1.6"/><rect class="cls-2" x="259.4" y="213.59" width="8.59" height="1.6"/><path class="cls-2" d="M298,365.52l-39.4-78.58h.56a5.18,5.18,0,0,0,5.18-5.18v-1.6a5.18,5.18,0,0,0-5.18-5.18H241.59a5.18,5.18,0,0,0-5.18,5.18v1.6a5.15,5.15,0,0,0,4.58,5.12l-39.51,78.68a24.56,24.56,0,0,0,21.93,35.56H276a24.58,24.58,0,0,0,22-35.6Z"/><path class="cls-1" d="M251.19,304.73l88.88-41.57a5.58,5.58,0,0,1,7.42,2.69l5,10.66a5.59,5.59,0,0,1-2.69,7.42l-88.88,41.58a5.59,5.59,0,0,1-7.42-2.7l-5-10.66a5.55,5.55,0,0,1-.19-4.27,5.91,5.91,0,0,1,.83-1.52A5.6,5.6,0,0,1,251.19,304.73Z"/><path class="cls-2" d="M248.15,304.47l39.12-23.32a5.58,5.58,0,0,1,7.45,2.6l9.87,19.83A5.58,5.58,0,0,1,302,311h0l-41.8,16.15c-1.09.53-3.24-.46-5-1.25-.54-.25-1-.46-1.33-.58h0a2.9,2.9,0,0,1-.41-.16,5.54,5.54,0,0,1-2.77-2.69l-5.1-10.6a5.61,5.61,0,0,1,.61-5.85A5.46,5.46,0,0,1,248.15,304.47Z"/><path class="cls-3" d="M215.63,201.15a2.16,2.16,0,0,1-2.15-2.16,2.07,2.07,0,0,1,.06-.5l11.15-49.15a2.17,2.17,0,0,1,2.6-1.63,2,2,0,0,1,1,.52l37,34.25a2.18,2.18,0,0,1,.12,3.07,2.21,2.21,0,0,1-.94.59l-48.16,14.91A2.05,2.05,0,0,1,215.63,201.15Z"/><polygon class="cls-4" points="245.89 165.22 222.65 160.6 223.02 158.98 243.56 163.07 245.89 165.22"/><polygon class="cls-4" points="264.19 182.17 219.76 173.33 220.13 171.71 261.86 180.01 264.19 182.17"/><polygon class="cls-4" points="248.29 190.62 244.96 191.65 216.87 186.06 217.24 184.44 248.29 190.62"/><circle class="cls-1" cx="356.61" cy="194.89" r="7.01"/><circle class="cls-5" cx="266.46" cy="16.59" r="5.01"/><circle class="cls-5" cx="157.27" cy="171.85" r="5.01"/><circle class="cls-1" cx="332.57" cy="154.82" r="5.01"/><circle class="cls-1" cx="180.31" cy="222.94" r="5.01"/><circle class="cls-6" cx="338.58" cy="236.96" r="5.01"/><circle class="cls-7" cx="294.51" cy="58.66" r="5.01"/><path class="cls-7" d="M105.2,118.74a33.24,33.24,0,0,1,26,15.4c.79,1.26,1.82,2.64,1.27,4.19a2.74,2.74,0,0,1-2.85,1.91,3.61,3.61,0,0,1-.38-7c3.64-1.55,7.31.85,10.27,2.76,6.75,4.36,14.18,8.3,22.36,8.8,7.57.46,15.69-2.51,19.9-9.07.73-1.15-1.1-2.21-1.83-1.07-4.17,6.51-12.62,8.85-19.95,7.84a38.87,38.87,0,0,1-12.49-4.23c-2-1.05-4-2.21-5.89-3.43a37.57,37.57,0,0,0-5.78-3.31c-3.37-1.39-7.83-1.28-10.18,1.91-2.19,3-.5,7.92,3.17,8.75a5,5,0,0,0,5.82-5.9c-.37-1.75-1.69-3.46-2.71-4.89a35.35,35.35,0,0,0-26.74-14.82c-1.36-.07-1.35,2,0,2.12Z"/><path class="cls-7" d="M401.42,182.71a26.44,26.44,0,0,1-12.1-20.78c-.05-1.18-.23-2.54.75-3.4a2.19,2.19,0,0,1,2.72-.22,2.87,2.87,0,0,1-2.44,5c-3.13-.33-4.75-3.42-6.06-5.9-3-5.64-6.63-11.26-12.12-14.78-5.08-3.25-11.86-4.33-17.33-1.41-1,.51-.1,2,.85,1.45,5.43-2.9,12.19-1.25,16.9,2.29a30.85,30.85,0,0,1,7,7.78c1,1.51,1.9,3.08,2.76,4.67a29.87,29.87,0,0,0,2.73,4.54c1.8,2.26,4.94,3.92,7.81,2.62a4.62,4.62,0,0,0,2-6.22,4.72,4.72,0,0,0-.79-1.1,4,4,0,0,0-5.56.46,3.79,3.79,0,0,0-.76,1.39,11.49,11.49,0,0,0,0,4.45,28.11,28.11,0,0,0,12.83,20.65c.92.58,1.73-.89.82-1.47Z"/><path class="cls-7" d="M228.59,44A26.44,26.44,0,0,1,207.9,31.78c-.63-1-1.45-2.1-1-3.33a2.2,2.2,0,0,1,2.27-1.52,2.88,2.88,0,0,1,.3,5.54c-2.9,1.23-5.82-.67-8.17-2.2-5.37-3.46-11.28-6.6-17.78-7-6-.36-12.48,2-15.83,7.22-.58.91.87,1.76,1.45.85,3.33-5.18,10-7,15.88-6.24a31.05,31.05,0,0,1,9.93,3.37c1.6.83,3.16,1.76,4.68,2.73a29.88,29.88,0,0,0,4.6,2.63c2.67,1.1,6.22,1,8.09-1.52a4.61,4.61,0,0,0-1.3-6.39,4.68,4.68,0,0,0-1.22-.57,4,4,0,0,0-4.64,3.11,4,4,0,0,0,0,1.58,11.3,11.3,0,0,0,2.15,3.9,28.14,28.14,0,0,0,21.27,11.78c1.08.05,1.07-1.63,0-1.68Z"/><rect class="cls-7" x="227.39" y="97.29" width="5.01" height="16.46"/><rect class="cls-8" x="144.98" y="70.26" width="4.92" height="16.17" transform="translate(-12.22 127.21) rotate(-45)"/><rect class="cls-8" x="291.61" y="113.95" width="16.17" height="4.92" transform="translate(5.46 246.02) rotate(-45)"/><rect class="cls-5" x="149.37" y="256.2" width="16.17" height="4.92" transform="translate(-136.78 187.1) rotate(-45)"/></svg>