<svg id="Layer_1" data-name="Layer 1" xmlns="http://www.w3.org/2000/svg" viewBox="0 0 506 506"><defs><style>.cls-1{fill:#f2f2f2;}.cls-2{fill:#3f3d56;}.cls-3{fill:#ffb8b8;}.cls-4{fill:#ccc;}.cls-5{fill:#fff;}.cls-6{fill:#2f2e41;}.cls-7{fill:#fbd551;}</style></defs><title>al bsmh</title><path class="cls-1" d="M486.83,214h-272a14.45,14.45,0,0,0-14.44,14.44v44.08A14.45,14.45,0,0,0,214.84,287h272a14.45,14.45,0,0,0,14.44-14.44V228.47A14.45,14.45,0,0,0,486.83,214Z"/><path class="cls-2" d="M113.55,465.62H5.34a.87.87,0,1,1,0-1.73H113.55a.87.87,0,0,1,0,1.73Z"/><path class="cls-3" d="M97.66,194.56a8.12,8.12,0,0,0-2.53,11.2A7.82,7.82,0,0,0,96,206.9l-7.87,16.8,9,7.27L108,207.09a8.16,8.16,0,0,0-10.29-12.53Z"/><path class="cls-4" d="M52.45,201.38h0a11.3,11.3,0,0,1,15.22,3.41l16.1,24.1,5.59-12.32a3.47,3.47,0,0,1,4.19-1.87l8.43,2.63a3.46,3.46,0,0,1,2.27,4.34s0,.05,0,.08L98.45,238.8A14.73,14.73,0,0,1,79.77,248a15.33,15.33,0,0,1-3.62-1.81h0a15.38,15.38,0,0,1-2.41-2.08L50,218.79a11.29,11.29,0,0,1,.53-16A11,11,0,0,1,52.45,201.38Z"/><path class="cls-2" d="M104.53,176.47a1.62,1.62,0,0,1,1.58,1.67l-.13,5.6.28,0-.1,3.8-.28,0-.5,20a2.82,2.82,0,0,1-2.53,2.74l-12.74,1.35a2.14,2.14,0,0,1-2.35-1.91,2.26,2.26,0,0,1,0-.37l1.93-28.54a2.66,2.66,0,0,1,2.24-2.43l12.3-1.91h0A1.55,1.55,0,0,1,104.53,176.47Z"/><path class="cls-5" d="M94.66,179.44l6.47-1a.54.54,0,0,0,.45-.47h0a.6.6,0,0,1,.51-.53l1.36-.22a1.29,1.29,0,0,1,1.47,1.08,1.64,1.64,0,0,1,0,.23l-.7,29.05A1.48,1.48,0,0,1,102.9,209l-12.74,1.13a1.13,1.13,0,0,1-1.23-1V209l1.72-28.28a1.83,1.83,0,0,1,1.54-1.7l1.44-.22A.9.9,0,0,0,94.66,179.44Z"/><polygon class="cls-3" points="64.66 455.11 74.55 455.11 79.26 416.93 64.65 416.94 64.66 455.11"/><path class="cls-6" d="M93.64,464.3H62.54v-12H81.62a12,12,0,0,1,12,12Z"/><polygon class="cls-3" points="34.24 455.11 44.13 455.11 48.84 416.93 34.23 416.94 34.24 455.11"/><path class="cls-6" d="M63.22,464.3H32.12v-12H51.2a12,12,0,0,1,12,12Z"/><circle class="cls-3" cx="63.22" cy="167.14" r="21.26"/><path class="cls-6" d="M74.17,224a32.78,32.78,0,0,0-15.83-27c-5.49-3.24-11.5-4.5-16.29.28a33.26,33.26,0,0,0-6.78,10.19,43.66,43.66,0,0,0-.81,32.45l11.38,31.46,26.36,2.85A3.45,3.45,0,0,0,76,271.17a2.9,2.9,0,0,0,0-.51Z"/><path class="cls-6" d="M47.52,267.51S27.83,274.86,33,306c4.61,27.93.94,120.62.14,139.36a3.45,3.45,0,0,0,3.17,3.59l11.5,1a3.47,3.47,0,0,0,3.73-3.08l5.93-54.51a.86.86,0,0,1,1.72,0l4.43,52.46A3.47,3.47,0,0,0,67.16,448l9.65-.31a3.46,3.46,0,0,0,3.35-3.57h0L74.48,271.15Z"/><path class="cls-6" d="M67.49,165.74a15.41,15.41,0,1,0-6.76-23.12c-3.59-6.48-13-8.13-19.48-4.52s-10,11.19-10.42,18.59,1.84,14.69,4.58,21.57c4.44,11.14,18.73,17.13,29.78,12.5A20.49,20.49,0,0,1,67.49,165.74Z"/><path id="b77c6965-cdfc-4713-bd9a-03fafd9c7c98-207" class="cls-7" d="M96.15,197.14a.9.9,0,0,1-.53-.17h0l-2-1.51a.9.9,0,0,1-.16-1.24.89.89,0,0,1,1.23-.16L96,195l3-3.94a.88.88,0,0,1,1.23-.17h0l0,0,0,0a.87.87,0,0,1,.16,1.23l-3.55,4.65a.91.91,0,0,1-.7.34Z"/><path class="cls-2" d="M487.09,109.74h-272a14.46,14.46,0,0,0-14.44,14.44v44.08a14.45,14.45,0,0,0,14.44,14.44h272a14.45,14.45,0,0,0,14.44-14.44V124.18A14.46,14.46,0,0,0,487.09,109.74ZM500,168.26a12.94,12.94,0,0,1-12.92,12.92h-272a12.94,12.94,0,0,1-12.92-12.92V124.18a12.94,12.94,0,0,1,12.92-12.92h272A12.94,12.94,0,0,1,500,124.18Z"/><path class="cls-7" d="M270.44,171.36a25.14,25.14,0,1,1,25.14-25.14h0A25.17,25.17,0,0,1,270.44,171.36Z"/><path class="cls-4" d="M450,166.74H319.34a6.08,6.08,0,1,1,0-12.16H450a6.08,6.08,0,0,1,0,12.16Z"/><path class="cls-4" d="M362.58,140.9H319.34a6.08,6.08,0,1,1,0-12.16h43.24a6.08,6.08,0,1,1,0,12.16Z"/><path id="b837c4e1-e336-4370-ba9c-f06fbd333d33-208" class="cls-5" d="M269.16,155.06a2.92,2.92,0,0,1-1.73-.57l0,0-6.51-5a2.89,2.89,0,1,1,3.51-4.6h0l4.22,3.23,10-13a2.91,2.91,0,0,1,4.06-.53h0l-.07.09.07-.09a2.91,2.91,0,0,1,.53,4.06l-11.72,15.29a2.93,2.93,0,0,1-2.31,1.13Z"/><path class="cls-5" d="M370.22,228.34h-272a14.46,14.46,0,0,0-14.44,14.44v44.08A14.45,14.45,0,0,0,98.22,301.3h272a14.45,14.45,0,0,0,14.44-14.44V242.78A14.46,14.46,0,0,0,370.22,228.34Z"/><path class="cls-2" d="M370.22,228.34h-272a14.46,14.46,0,0,0-14.44,14.44v44.08A14.45,14.45,0,0,0,98.22,301.3h272a14.45,14.45,0,0,0,14.44-14.44V242.78A14.46,14.46,0,0,0,370.22,228.34Zm12.92,58.52a12.94,12.94,0,0,1-12.92,12.92h-272A12.94,12.94,0,0,1,85.3,286.86V242.78a12.94,12.94,0,0,1,12.92-12.92h272a12.94,12.94,0,0,1,12.92,12.92Z"/><path class="cls-7" d="M153.57,290a25.14,25.14,0,1,1,25.14-25.14h0A25.17,25.17,0,0,1,153.57,290Z"/><path class="cls-4" d="M333.11,285.34H202.47a6.08,6.08,0,0,1,0-12.16H333.11a6.08,6.08,0,0,1,0,12.16Z"/><path class="cls-4" d="M245.71,259.5H202.47a6.08,6.08,0,1,1,0-12.16h43.24a6.08,6.08,0,1,1,0,12.16Z"/><path id="ae103e1a-a1d0-4366-bdbf-adaac5567630-209" class="cls-5" d="M152.29,273.66a2.92,2.92,0,0,1-1.73-.57l0,0-6.51-5a2.89,2.89,0,1,1,3.52-4.59h0l4.22,3.23,10-13a2.9,2.9,0,0,1,4.06-.54h0l-.06.09.06-.09a2.9,2.9,0,0,1,.53,4.06L154.6,272.53a2.89,2.89,0,0,1-2.31,1.13Z"/><path class="cls-3" d="M89.4,238.29a8.11,8.11,0,0,0-10.64,4.31,8.25,8.25,0,0,0-.43,1.36L60,247.1l-.81,11.57L85,253.88a8.16,8.16,0,0,0,4.41-15.59Z"/><path class="cls-4" d="M58,205.06h0a11.3,11.3,0,0,1,5.88,14.45l-10.59,27L66.59,244a3.46,3.46,0,0,1,3.93,2.36l2.65,8.43a3.47,3.47,0,0,1-2.26,4.35l-.08,0-17.29,5a14.7,14.7,0,0,1-18.82-14.07h0A14.77,14.77,0,0,1,35,247L42.31,213a11.3,11.3,0,0,1,13.42-8.69A12,12,0,0,1,58,205.06Z"/></svg>